<svg width="1920" height="1080" viewBox="0 0 1920 1080" fill="none" xmlns="http://www.w3.org/2000/svg">
<g clip-path="url(#clip0_17_196)">
<path d="M1435.46 809.626C1435.46 812.219 1434.84 814.786 1433.61 817.181C1432.39 819.577 1430.6 821.753 1428.34 823.586C1426.08 825.419 1423.4 826.874 1420.45 827.866C1417.5 828.858 1414.34 829.368 1411.15 829.368H421.617C415.167 829.368 408.982 827.288 404.422 823.586C399.861 819.884 397.299 814.862 397.299 809.626V809.626C397.299 807.033 397.928 804.466 399.15 802.071C400.372 799.675 402.163 797.499 404.421 795.666C406.68 793.832 409.36 792.378 412.311 791.386C415.261 790.393 418.423 789.883 421.617 789.883H1411.15C1414.34 789.883 1417.5 790.393 1420.45 791.386C1423.4 792.378 1426.08 793.832 1428.34 795.665C1430.6 797.499 1432.39 799.675 1433.61 802.071C1434.84 804.466 1435.47 807.033 1435.46 809.626Z" fill="#CBABB3"/>
<path d="M847.844 296.437L894.092 287.137C894.092 287.137 904.696 293.324 895.604 302.512C895.076 303.044 847.844 296.437 847.844 296.437Z" fill="#E40037"/>
<path d="M847.844 296.437L894.092 287.137C894.092 287.137 904.696 293.324 895.604 302.512C895.076 303.044 847.844 296.437 847.844 296.437Z" stroke="#754551" stroke-width="1.19242" stroke-miterlimit="10"/>
<path d="M842.088 275.533L872.651 245.857C872.651 245.857 885.709 245.766 885.052 257.539C885.012 258.222 842.088 275.533 842.088 275.533Z" fill="#E40037"/>
<path d="M842.088 275.533L872.651 245.857C872.651 245.857 885.709 245.766 885.052 257.539C885.012 258.222 842.088 275.533 842.088 275.533Z" stroke="#754551" stroke-width="1.19242" stroke-miterlimit="10"/>
<path d="M823.353 277.367L809.39 240.383C809.39 240.383 816.418 231.448 828.215 238.317C828.898 238.717 823.353 277.367 823.353 277.367Z" fill="#E40037"/>
<path d="M823.353 277.367L809.39 240.383C809.39 240.383 816.418 231.448 828.215 238.317C828.898 238.717 823.353 277.367 823.353 277.367Z" stroke="#754551" stroke-width="1.19242" stroke-miterlimit="10"/>
<path d="M910.734 772.709L868.943 775.366C868.943 775.366 860.839 768.756 870.362 761.847C870.913 761.447 910.734 772.709 910.734 772.709Z" fill="#E40037"/>
<path d="M910.734 772.709L868.943 775.366C868.943 775.366 860.839 768.756 870.362 761.847C870.913 761.447 910.734 772.709 910.734 772.709Z" stroke="#754551" stroke-width="1.19242" stroke-miterlimit="10"/>
<path d="M912.017 791.526L880.221 813.705C880.221 813.705 868.873 812.255 871.532 802.112C871.688 801.526 912.017 791.526 912.017 791.526Z" fill="#E40037"/>
<path d="M912.017 791.526L880.221 813.705C880.221 813.705 868.873 812.255 871.532 802.112C871.688 801.526 912.017 791.526 912.017 791.526Z" stroke="#754551" stroke-width="1.19242" stroke-miterlimit="10"/>
<path d="M928.602 792.127L934.153 825.861C934.153 825.861 926.466 832.792 917.446 825.449C916.924 825.022 928.602 792.127 928.602 792.127Z" fill="#E40037"/>
<path d="M928.602 792.127L934.153 825.861C934.153 825.861 926.466 832.792 917.446 825.449C916.924 825.022 928.602 792.127 928.602 792.127Z" stroke="#754551" stroke-width="1.19242" stroke-miterlimit="10"/>
<path d="M722.936 615.998H716.657L714.045 628.979H706.284L708.897 615.998H700.24V610.204H710.067L711.783 601.845H703.164V596.052H712.953L715.644 582.88H723.365L720.713 596.052H726.992L729.682 582.88H737.443L734.752 596.052H743.76V601.845H733.582L731.866 610.204H740.797V615.998H730.696L728.084 628.979H720.323L722.936 615.998ZM717.827 610.204H724.106L725.821 601.845H719.543L717.827 610.204Z" fill="#CBABB3"/>
<path d="M592.461 800.005C589.175 799.974 586.035 798.901 583.711 797.014C581.388 795.128 580.066 792.578 580.028 789.911V751.779H434.984C431.699 751.749 428.559 750.675 426.235 748.789C423.912 746.903 422.59 744.354 422.552 741.687V702.06C422.552 695.582 424.548 690.223 428.539 685.985L566.214 545.049C568.976 542.309 571.509 540.502 573.812 539.628C576.113 538.758 579.259 538.322 583.251 538.319H652.78C656.065 538.351 659.205 539.424 661.528 541.31C663.851 543.197 665.173 545.746 665.211 548.413V691.966H704.811C708.096 691.998 711.236 693.071 713.559 694.957C715.882 696.843 717.204 699.392 717.243 702.06V741.687C717.205 744.354 715.883 746.903 713.559 748.789C711.236 750.675 708.096 751.748 704.811 751.779H665.211V789.911C665.173 792.578 663.851 795.127 661.528 797.014C659.205 798.9 656.065 799.973 652.78 800.005H592.461ZM582.33 691.966V623.18L515.103 691.966H582.33Z" fill="#CBABB3"/>
<path d="M943.677 420.685C966.698 420.685 986.498 423.426 1003.07 428.909C1019.65 434.395 1033.39 441.747 1044.29 450.965C1055.19 460.197 1063.51 471.226 1068.69 483.303C1074.09 495.769 1077.27 508.798 1078.13 521.994C1078.74 532.713 1079.05 543.929 1079.05 555.641C1079.05 567.358 1078.74 578.324 1078.13 588.538C1077.27 601.734 1074.09 614.764 1068.69 627.23C1063.51 639.307 1055.19 650.337 1044.29 659.567C1033.39 668.79 1019.65 676.143 1003.07 681.623C986.498 687.102 966.699 689.843 943.677 689.847C920.654 689.847 900.854 687.106 884.277 681.623C867.702 676.144 853.965 668.792 843.067 659.567C832.16 650.34 823.836 639.309 818.663 627.23C813.258 614.764 810.079 601.735 809.223 588.538C808.605 578.321 808.298 567.356 808.303 555.641C808.303 543.929 808.61 532.713 809.223 521.994C810.079 508.798 813.258 495.768 818.663 483.303C823.838 471.224 832.162 460.194 843.067 450.965C853.96 441.748 867.696 434.396 884.277 428.909C900.854 423.43 920.654 420.689 943.677 420.685ZM992.945 586.668C994.169 565.489 994.169 544.554 992.945 523.864C992.413 518.061 991.257 512.307 989.491 506.668C987.973 501.723 985.231 497.08 981.433 493.023C977.533 489.025 972.469 485.878 966.698 483.864C960.556 481.62 952.882 480.499 943.677 480.499C934.468 480.499 926.793 481.621 920.654 483.864C914.882 485.876 909.818 489.024 905.92 493.023C902.106 497.098 899.292 501.731 897.631 506.668C895.716 512.275 894.634 518.048 894.407 523.864C892.868 544.78 892.868 565.752 894.407 586.668C894.636 592.471 895.639 598.237 897.4 603.865C898.928 608.843 901.754 613.496 905.688 617.51C909.706 621.488 914.837 624.629 920.654 626.67C926.791 628.912 934.465 630.033 943.677 630.033C952.886 630.033 960.56 628.912 966.698 626.67C972.513 624.626 977.643 621.486 981.663 617.51C985.593 613.493 988.419 608.841 989.952 603.865C991.707 598.236 992.71 592.471 992.945 586.668V586.668Z" fill="#CBABB3"/>
<path d="M1301.68 509.57C1298.4 509.539 1295.26 508.465 1292.93 506.579C1290.61 504.693 1289.29 502.144 1289.25 499.477V461.345H1144.21C1140.92 461.314 1137.78 460.241 1135.46 458.355C1133.13 456.469 1131.81 453.919 1131.77 451.252V411.625C1131.77 405.147 1133.77 399.789 1137.76 395.55L1275.43 254.614C1278.2 251.875 1280.73 250.068 1283.03 249.194C1285.33 248.324 1288.48 247.887 1292.47 247.885H1362C1365.29 247.916 1368.43 248.99 1370.75 250.876C1373.07 252.762 1374.39 255.311 1374.43 257.979V401.532H1414.03C1417.32 401.563 1420.46 402.636 1422.78 404.523C1425.1 406.409 1426.43 408.958 1426.46 411.625V451.252C1426.43 453.92 1425.1 456.469 1422.78 458.355C1420.46 460.241 1417.32 461.314 1414.03 461.345H1374.43V499.477C1374.39 502.144 1373.07 504.693 1370.75 506.58C1368.43 508.466 1365.29 509.539 1362 509.57H1301.68ZM1291.55 401.532V332.746L1224.32 401.532H1291.55Z" fill="#CBABB3"/>
<path d="M584.334 771.936C581.049 771.905 577.909 770.831 575.586 768.945C573.262 767.059 571.94 764.51 571.902 761.843V723.711H426.858C423.573 723.68 420.433 722.607 418.11 720.721C415.787 718.834 414.465 716.285 414.427 713.618V673.991C414.427 667.513 416.422 662.155 420.413 657.916L558.088 516.98C560.85 514.24 563.383 512.433 565.686 511.559C567.987 510.689 571.134 510.253 575.125 510.25H644.654C647.939 510.281 651.079 511.355 653.402 513.241C655.726 515.127 657.048 517.677 657.085 520.344V663.897H696.685C699.971 663.928 703.111 665.001 705.434 666.888C707.757 668.774 709.079 671.323 709.117 673.991V713.618C709.079 716.285 707.757 718.834 705.434 720.721C703.111 722.607 699.971 723.68 696.685 723.711H657.085V761.843C657.047 764.51 655.725 767.059 653.402 768.945C651.079 770.832 647.939 771.905 644.654 771.936H584.334ZM574.204 663.897V595.111L506.978 663.897H574.204Z" stroke="#754551" stroke-width="1.19242" stroke-linecap="round" stroke-linejoin="round"/>
<path d="M902.957 434.298C925.979 434.298 945.778 437.04 962.354 442.522C978.931 448.008 992.668 455.36 1003.57 464.579C1014.47 473.81 1022.79 484.839 1027.97 496.916C1033.37 509.382 1036.55 522.411 1037.41 535.608C1038.02 546.326 1038.33 557.541 1038.33 569.254C1038.33 580.971 1038.02 591.936 1037.41 602.152C1036.55 615.348 1033.37 628.376 1027.97 640.842C1022.79 652.92 1014.47 663.949 1003.57 673.18C992.665 682.403 978.928 689.755 962.354 695.236C945.779 700.715 925.98 703.457 902.957 703.461C879.934 703.461 860.134 700.719 843.558 695.236C826.981 689.758 813.244 682.406 802.348 673.18C791.441 663.953 783.116 652.922 777.943 640.842C772.538 628.377 769.36 615.348 768.505 602.152C767.885 591.934 767.578 580.968 767.584 569.254C767.584 557.541 767.891 546.326 768.505 535.608C769.36 522.411 772.538 509.381 777.943 496.916C783.118 484.837 791.442 473.807 802.348 464.579C813.24 455.361 826.976 448.009 843.558 442.522C860.135 437.043 879.934 434.302 902.957 434.298ZM952.226 600.281C953.448 579.101 953.448 558.167 952.226 537.477C951.693 531.674 950.538 525.92 948.772 520.281C947.253 515.336 944.511 510.694 940.714 506.636C936.813 502.638 931.75 499.491 925.979 497.477C919.834 495.233 912.16 494.111 902.957 494.112C893.747 494.112 886.072 495.233 879.934 497.477C874.162 499.49 869.098 502.637 865.199 506.636C861.386 510.711 858.573 515.344 856.912 520.281C854.997 525.888 853.914 531.661 853.687 537.477C852.148 558.393 852.148 579.365 853.687 600.281C853.916 606.084 854.919 611.85 856.68 617.478C858.207 622.456 861.034 627.109 864.969 631.123C868.986 635.101 874.117 638.241 879.934 640.282C886.071 642.525 893.745 643.647 902.957 643.647C912.166 643.647 919.84 642.525 925.979 640.282C931.793 638.239 936.924 635.099 940.944 631.123C944.873 627.106 947.699 622.454 949.232 617.478C950.987 611.849 951.991 606.084 952.226 600.281V600.281Z" stroke="#754551" stroke-width="1.19242" stroke-linecap="round" stroke-linejoin="round"/>
<path d="M1263.77 523.183C1260.48 523.153 1257.34 522.079 1255.02 520.193C1252.69 518.307 1251.37 515.757 1251.33 513.09V474.958H1106.29C1103.01 474.928 1099.87 473.855 1097.54 471.968C1095.22 470.082 1093.9 467.533 1093.86 464.866V425.238C1093.86 418.761 1095.85 413.402 1099.84 409.163L1237.52 268.228C1240.28 265.488 1242.82 263.681 1245.12 262.807C1247.42 261.937 1250.57 261.501 1254.56 261.498H1324.09C1327.37 261.529 1330.51 262.603 1332.83 264.489C1335.16 266.375 1336.48 268.924 1336.52 271.592V415.144H1376.12C1379.4 415.176 1382.54 416.25 1384.87 418.136C1387.19 420.022 1388.51 422.571 1388.55 425.238V464.866C1388.51 467.533 1387.19 470.082 1384.87 471.968C1382.54 473.854 1379.4 474.927 1376.12 474.958H1336.52V513.09C1336.48 515.757 1335.16 518.306 1332.83 520.193C1330.51 522.079 1327.37 523.152 1324.09 523.183H1263.77ZM1253.64 415.144V346.359L1186.41 415.144H1253.64Z" stroke="#754551" stroke-width="1.19242" stroke-linecap="round" stroke-linejoin="round"/>
<path d="M423.989 788.26H1394.08" stroke="#754551" stroke-width="1.19242" stroke-linecap="round" stroke-linejoin="round"/>
<path d="M603.184 764.315L594.8 784.978L575.797 784.556L582.076 767.354" fill="white"/>
<path d="M603.184 764.315L594.8 784.978L575.797 784.556L582.076 767.354" stroke="#754551" stroke-width="1.19242" stroke-linecap="round" stroke-linejoin="round"/>
<path d="M674.889 451.884L663.343 452.666C666.148 471.817 656.129 485.963 642.993 496.074L655.725 512.344C678.578 487.815 674.889 451.884 674.889 451.884Z" fill="white" stroke="#754551" stroke-width="1.19242" stroke-linecap="round" stroke-linejoin="round"/>
<path d="M595.523 517.552L606.198 534.2C629.876 532.063 645.47 523.351 655.724 512.344L642.992 496.074C622.903 511.533 595.523 517.552 595.523 517.552Z" fill="#CBABB3" stroke="#754551" stroke-width="1.19242" stroke-linecap="round" stroke-linejoin="round"/>
<path d="M674.725 456.079L664.021 455.929C663.57 455.705 663.156 455.435 662.79 455.126C662.229 454.639 663.398 452.9 663.398 452.9C663.398 452.9 659.436 447.865 658.533 443.567C657.629 439.269 653.436 435.043 655.966 434.987C658.497 434.931 658.619 438.63 659.872 438.191C660.498 437.972 660.705 434.587 659.992 431.286C659.282 427.987 657.651 424.772 659.433 425.042C662.996 425.58 664.926 436.157 664.926 436.157C664.926 436.157 665.188 432.747 665.17 429.18C665.153 425.352 664.929 421.35 667.161 421.376C669.088 421.397 669.054 424.916 669.573 428.42C669.944 430.726 670.478 433.013 671.171 435.269C671.171 435.269 672.121 423.701 673.681 424.899C675.242 426.098 674.113 436.381 675.019 436.378C675.927 436.373 677.045 429.176 678.331 429.764C679.618 430.353 678.258 442.721 678.258 442.721C678.258 442.721 678.746 449.971 675.314 453.337C675.314 453.337 676.842 455.553 674.725 456.079Z" fill="#754551"/>
<path d="M649.306 490.863L637.884 496.663L653.946 517.514L665.369 511.714L649.306 490.863Z" fill="#CBABB3" stroke="#754551" stroke-width="1.19242" stroke-linecap="round" stroke-linejoin="round"/>
<path d="M501.287 369.949C501.286 375.478 498.581 380.78 493.767 384.689C488.952 388.598 482.422 390.795 475.613 390.796H353.986C347.177 390.795 340.646 388.599 335.831 384.689C331.016 380.78 328.31 375.478 328.31 369.949V369.949C328.31 364.421 331.015 359.118 335.831 355.209C340.646 351.299 347.177 349.103 353.986 349.103H475.613C482.422 349.103 488.952 351.3 493.767 355.21C498.582 359.119 501.286 364.421 501.287 369.949V369.949Z" fill="white" stroke="#754551" stroke-width="1.19242" stroke-linecap="round" stroke-linejoin="round"/>
<path d="M467.818 374.191H357.734C352.483 374.189 347.387 372.742 343.277 370.087C339.168 367.433 336.288 363.726 335.106 359.571C333.199 362.446 332.243 365.673 332.332 368.938C332.421 372.202 333.551 375.392 335.613 378.195C337.674 380.999 340.597 383.32 344.094 384.932C347.591 386.544 351.544 387.392 355.565 387.393H465.649C469.148 387.4 472.604 386.765 475.757 385.533C478.91 384.302 481.679 382.507 483.856 380.283C486.032 378.059 487.561 375.464 488.326 372.692C489.091 369.92 489.073 367.043 488.274 364.278C486.284 367.275 483.332 369.78 479.73 371.525C476.128 373.271 472.012 374.192 467.818 374.191V374.191Z" fill="#CBABB3"/>
<path d="M555.345 377.627C555.346 382.743 554.106 387.808 551.695 392.534C549.284 397.26 545.751 401.555 541.296 405.172C536.841 408.789 531.551 411.658 525.73 413.615C519.909 415.573 513.67 416.58 507.37 416.579V416.579C501.069 416.58 494.83 415.573 489.009 413.615C483.188 411.658 477.899 408.789 473.444 405.172C468.989 401.554 465.455 397.26 463.045 392.534C460.635 387.808 459.395 382.743 459.396 377.627V362.268C459.395 357.153 460.635 352.088 463.046 347.362C465.456 342.636 468.99 338.342 473.445 334.725C477.9 331.108 483.189 328.239 489.01 326.281C494.83 324.324 501.069 323.317 507.37 323.317V323.317C513.67 323.317 519.909 324.324 525.73 326.281C531.551 328.239 536.84 331.108 541.295 334.725C545.75 338.342 549.283 342.636 551.694 347.362C554.105 352.088 555.345 357.153 555.345 362.268V377.627Z" fill="white" stroke="#754551" stroke-width="1.19242" stroke-linecap="round" stroke-linejoin="round"/>
<path d="M521.741 395.673C516.164 395.674 510.64 394.782 505.487 393.049C500.334 391.317 495.651 388.777 491.707 385.574C487.763 382.372 484.635 378.57 482.501 374.386C480.367 370.202 479.269 365.718 479.269 361.189V347.592C479.265 343.122 480.334 338.694 482.417 334.557C476.65 337.713 471.927 341.971 468.663 346.957C465.399 351.942 463.695 357.503 463.7 363.149V376.747C463.7 384.74 467.12 392.485 473.375 398.657C479.631 404.83 488.333 409.046 497.994 410.586C507.655 412.125 517.674 410.892 526.339 407.097C535.004 403.302 541.776 397.181 545.497 389.781C538.484 393.632 530.208 395.685 521.741 395.673V395.673Z" fill="#CBABB3"/>
<path d="M712.108 399.573C712.108 405.336 710.711 411.044 707.994 416.368C705.278 421.693 701.296 426.532 696.276 430.607C691.256 434.682 685.296 437.915 678.738 440.12C672.179 442.325 665.149 443.46 658.05 443.459H562.101C555.002 443.46 547.973 442.325 541.414 440.119C534.856 437.914 528.897 434.681 523.877 430.606C518.857 426.531 514.876 421.693 512.159 416.368C509.443 411.043 508.045 405.336 508.045 399.573V340.324C508.045 334.56 509.443 328.853 512.16 323.529C514.876 318.204 518.858 313.366 523.877 309.291C528.897 305.215 534.856 301.983 541.414 299.777C547.973 297.572 555.002 296.437 562.101 296.437H658.05C665.149 296.437 672.179 297.571 678.737 299.777C685.296 301.982 691.255 305.215 696.275 309.29C701.295 313.365 705.277 318.203 707.994 323.528C710.71 328.853 712.108 334.56 712.108 340.324V399.573Z" fill="white" stroke="#754551" stroke-width="1.19242" stroke-linecap="round" stroke-linejoin="round"/>
<path d="M676.226 417.53H587.044C580.446 417.53 573.913 416.475 567.817 414.425C561.721 412.376 556.182 409.371 551.516 405.583C546.851 401.795 543.15 397.298 540.625 392.349C538.1 387.4 536.801 382.095 536.801 376.739V321.669C536.798 316.548 537.986 311.473 540.303 306.71C532.041 310.122 525.103 315.324 520.258 321.74C515.412 328.155 512.848 335.535 512.849 343.06V398.131C512.848 403.487 514.148 408.792 516.672 413.741C519.197 418.69 522.898 423.187 527.563 426.975C532.229 430.763 537.768 433.767 543.864 435.817C549.959 437.867 556.493 438.922 563.091 438.921H652.272C662.357 438.921 672.208 436.457 680.544 431.85C688.88 427.243 695.316 420.706 699.015 413.09C691.959 416.014 684.148 417.536 676.226 417.53V417.53Z" fill="#CBABB3"/>
<path d="M720.465 267.361C712.773 267.313 705.136 268.409 697.931 270.596C697.832 270.594 697.734 270.586 697.635 270.586C693.235 270.586 689.019 272.805 685.123 276.861C681.638 279.51 679.338 282.575 678.594 285.874C668.452 303.663 661.708 335.232 661.708 371.219C661.708 426.797 677.793 471.851 697.635 471.851C699.553 471.836 701.437 471.435 703.118 470.686C708.773 471.929 714.607 472.551 720.465 472.536C743.741 472.536 762.613 463.201 762.613 451.689V288.209C762.613 276.696 743.741 267.361 720.465 267.361Z" fill="white" stroke="#754551" stroke-width="1.19242" stroke-linecap="round" stroke-linejoin="round"/>
<path d="M636.881 397.04C636.881 397.72 636.549 398.372 635.957 398.852C635.365 399.333 634.562 399.603 633.725 399.603V399.603C632.89 399.601 632.09 399.33 631.501 398.849C630.911 398.369 630.58 397.718 630.581 397.04V333.404C630.583 332.727 630.915 332.079 631.504 331.6C632.093 331.121 632.892 330.852 633.725 330.85V330.85C634.561 330.85 635.362 331.118 635.954 331.597C636.545 332.076 636.879 332.726 636.881 333.404V397.04Z" fill="#CBABB3"/>
<path d="M614.126 397.04C614.126 397.72 613.793 398.372 613.202 398.852C612.61 399.333 611.807 399.603 610.97 399.603V399.603C610.135 399.601 609.335 399.33 608.745 398.849C608.156 398.369 607.825 397.718 607.825 397.04V333.404C607.827 332.727 608.159 332.078 608.748 331.6C609.338 331.121 610.137 330.852 610.97 330.85V330.85C611.805 330.85 612.607 331.119 613.198 331.597C613.79 332.076 614.124 332.726 614.126 333.404V397.04Z" fill="#CBABB3"/>
<path d="M781.469 371.219C781.469 426.797 765.384 471.851 745.541 471.851C725.698 471.851 709.614 426.797 709.614 371.219C709.614 315.64 725.698 270.586 745.541 270.586C765.384 270.586 781.469 315.64 781.469 371.219Z" fill="#E40037" stroke="#754551" stroke-width="1.19242" stroke-miterlimit="10"/>
<path d="M737.171 387.166C737.171 388.197 736.666 389.186 735.768 389.916C734.869 390.645 733.651 391.055 732.38 391.055V391.055C731.751 391.055 731.128 390.954 730.547 390.759C729.966 390.564 729.438 390.277 728.993 389.916C728.548 389.555 728.195 389.126 727.954 388.654C727.714 388.182 727.59 387.676 727.59 387.166V353.134C727.59 352.623 727.714 352.117 727.954 351.645C728.195 351.173 728.548 350.745 728.993 350.383C729.438 350.022 729.966 349.736 730.547 349.54C731.128 349.345 731.751 349.244 732.38 349.244C733.651 349.244 734.869 349.654 735.768 350.384C736.666 351.113 737.171 352.102 737.171 353.134V387.166Z" fill="#754551"/>
<path d="M764.118 374.039C764.117 375.071 763.613 376.06 762.714 376.789C761.816 377.519 760.597 377.928 759.327 377.929V377.929C758.056 377.928 756.838 377.519 755.94 376.789C755.041 376.06 754.537 375.071 754.536 374.039V340.007C754.537 338.975 755.041 337.986 755.94 337.257C756.838 336.527 758.056 336.118 759.327 336.117V336.117C760.597 336.117 761.816 336.527 762.714 337.257C763.613 337.986 764.117 338.975 764.118 340.007V374.039Z" fill="#754551"/>
<path d="M663.966 755.322L660.222 772.945L639.562 775.62L644.205 758.36" fill="white"/>
<path d="M663.966 755.322L660.222 772.945L639.562 775.62L644.205 758.36" stroke="#754551" stroke-width="1.19242" stroke-linecap="round" stroke-linejoin="round"/>
<path d="M569.667 508.953C569.667 508.953 538.516 512.745 541.009 537.278C541.854 545.596 559.388 617.45 559.388 617.45L641.161 611.13C641.161 611.13 619.197 519.574 605.18 511.987C591.162 504.4 569.667 508.953 569.667 508.953Z" fill="#754551"/>
<path d="M559.387 617.45C559.387 617.45 563.334 637.751 572.159 656.903C585.455 685.761 596.848 700.1 593.653 721.491C588.869 753.536 573.842 771.609 573.842 771.609L608.424 776.105C608.424 776.105 629.981 717.279 626.788 708.851C621.182 669.398 616.009 608.375 616.009 608.375L559.387 617.45Z" fill="#754551"/>
<path d="M635.552 601.138C635.552 601.138 676.818 650.02 678.687 684.542C680.21 712.68 666.51 763.343 666.51 763.343L637.624 762.603C637.624 762.603 647.947 698.155 641.56 682.598C622.87 655.284 594.851 621.988 594.851 621.988L635.552 601.138Z" fill="#754551"/>
<path d="M561.257 519.384C561.257 519.384 582.283 514.262 590.227 531.713C598.17 549.164 591.146 561.435 578.378 563.307C551.736 567.213 532.752 522.04 561.257 519.384Z" fill="#CBABB3"/>
<path d="M612.422 534.761C613.136 536.572 603.777 541.198 603.777 541.198C602.327 538.137 600.573 535.177 598.532 532.347C596.866 530.126 594.966 528.026 592.854 526.071C589.292 523.368 584.619 519.574 579.384 517.695C577.484 516.98 575.506 516.408 573.476 515.987C569.291 515.117 569.024 511.679 573.288 511.086C575.398 510.568 577.597 510.33 579.8 510.383C582.028 510.436 584.239 510.707 586.387 511.189C588.639 511.56 590.831 512.141 592.919 512.919C594.968 513.701 596.928 514.629 598.775 515.692C600.778 516.691 608.424 524.631 612.422 534.761Z" fill="#CBABB3"/>
<path d="M570.434 478.461L567.25 495.171L552.83 484.423L547.709 476.122L553.47 471.705C553.47 471.705 575.234 457.413 578.756 454.165C582.276 450.917 593.794 469.086 583.873 476.622" fill="#754551"/>
<path d="M564.839 492.26L566.631 512.745C566.631 512.745 575.625 516.444 580.765 515.875C583.804 515.548 586.573 514.289 588.504 512.356L580.18 492.387L564.839 492.26Z" fill="white" stroke="#754551" stroke-width="1.19242" stroke-linecap="round" stroke-linejoin="round"/>
<path d="M581.926 472.732L566.506 477.676C566.506 477.676 568.112 483.375 567.779 484.036C567.775 484.038 563.372 486.197 563.369 486.199C561.228 487.404 561.021 490.168 562.907 492.376C564.791 494.583 568.052 495.395 570.193 494.189C570.68 493.91 571.08 493.542 571.361 493.115C575.798 496.761 578.991 498.429 584.855 498.429C595.977 498.429 581.926 472.732 581.926 472.732Z" fill="white" stroke="#754551" stroke-width="0.794946" stroke-linecap="round" stroke-linejoin="round"/>
<path d="M622.935 451.341H614.057C615.09 467.576 604.62 482.581 592.615 494.432L608.357 505.055C623.501 479.057 622.935 451.341 622.935 451.341Z" fill="white" stroke="#754551" stroke-width="1.19242" stroke-linecap="round" stroke-linejoin="round"/>
<path d="M558.37 519.99C556.266 522.009 554.441 524.21 552.93 526.554C550.041 530.967 550.041 537.05 554.715 539.326C569.666 547.673 583.685 534.041 592.727 525.177C594.596 523.333 596.34 521.473 597.98 519.508C599.619 517.545 601.155 515.626 602.593 513.582C603.652 512.17 604.652 510.952 605.599 509.513C606.576 508.037 607.488 506.548 608.357 505.055L592.615 494.432C592.396 494.646 563.125 515.781 558.37 519.99Z" fill="#CBABB3" stroke="#754551" stroke-width="1.19242" stroke-linecap="round" stroke-linejoin="round"/>
<path d="M595.19 486.284L586.572 494.692L609.855 510.423L618.473 502.016L595.19 486.284Z" fill="#CBABB3" stroke="#754551" stroke-width="1.19242" stroke-linecap="round" stroke-linejoin="round"/>
<path d="M632.514 593.669C632.514 593.669 582.595 604.867 555.765 602.18L557.724 621.664C557.724 621.664 609.567 611.315 633.837 601.011C634.266 600.829 633.858 599.904 633.858 599.904L632.514 593.669Z" fill="white" stroke="#754551" stroke-width="1.19242" stroke-linecap="round" stroke-linejoin="round"/>
<path d="M655.654 785.634L653.785 783.738L635.346 782.73L633.771 786.836C633.771 786.836 687.272 791.768 688.207 788.542C688.505 787.512 688.802 786.91 688.704 786.39L655.654 785.634Z" fill="#CBABB3" stroke="#754551" stroke-width="1.19242" stroke-linecap="round" stroke-linejoin="round"/>
<path d="M655.654 785.634L688.704 786.39C688.496 785.286 690.816 784.095 683.183 780.481C679.043 778.521 670.302 778.409 667.18 776.499C663.914 774.47 661.164 771.947 659.081 769.069C659.081 769.069 651.993 776.088 648.021 774.76C644.051 773.431 639.378 772.231 639.378 772.231L635.345 782.73L653.785 783.739L655.654 785.634Z" fill="#CBABB3" stroke="#754551" stroke-width="1.19242" stroke-linecap="round" stroke-linejoin="round"/>
<path d="M591.02 796.832L589.243 794.878L570.867 793.291L569.096 797.343C569.096 797.343 622.321 803.958 623.408 800.765C623.757 799.744 624.083 799.151 624.01 798.629L591.02 796.832Z" fill="#CBABB3" stroke="#754551" stroke-width="1.19242" stroke-linecap="round" stroke-linejoin="round"/>
<path d="M591.021 796.832L624.01 798.629C623.855 797.518 626.23 796.402 618.777 792.55C614.733 790.461 606.002 790.074 602.975 788.066C599.809 785.936 597.181 783.328 595.237 780.386C595.237 780.386 587.82 787.176 583.914 785.725C580.01 784.272 575.398 782.925 575.398 782.925L570.867 793.291L589.243 794.878L591.021 796.832Z" fill="#CBABB3" stroke="#754551" stroke-width="1.19242" stroke-linecap="round" stroke-linejoin="round"/>
<path d="M624.28 454.608L613.403 454.215C612.953 453.977 612.541 453.693 612.179 453.37C611.625 452.864 612.872 451.121 612.872 451.121C612.872 451.121 609.015 445.913 608.242 441.522C607.47 437.131 603.349 432.74 605.924 432.74C608.501 432.74 608.501 436.504 609.788 436.085C610.432 435.877 610.758 432.44 610.146 429.067C609.535 425.697 607.985 422.391 609.788 422.705C613.393 423.332 614.997 434.131 614.997 434.131C614.997 434.131 615.378 430.669 615.481 427.042C615.595 423.15 615.502 419.076 617.771 419.152C619.73 419.217 619.576 422.793 619.985 426.368C620.283 428.721 620.747 431.058 621.375 433.368C621.375 433.368 622.736 421.626 624.28 422.88C625.826 424.134 624.328 434.565 625.252 434.581C626.173 434.596 627.556 427.305 628.844 427.932C630.132 428.558 628.329 441.103 628.329 441.103C628.329 441.103 628.578 448.488 624.973 451.832C624.973 451.832 626.451 454.12 624.28 454.608Z" fill="#754551"/>
<path d="M609.862 552.092C611.009 554.514 610.939 556.79 609.704 557.176C608.469 557.561 606.538 555.91 605.39 553.488C604.243 551.065 604.314 548.787 605.55 548.402C606.783 548.017 608.714 549.669 609.862 552.092Z" fill="white"/>
<path d="M620.042 547.069C621.189 549.491 621.119 551.767 619.884 552.153C618.649 552.538 616.718 550.887 615.57 548.465C614.424 546.041 614.495 543.764 615.731 543.379C616.963 542.994 618.894 544.645 620.042 547.069Z" fill="white"/>
<path d="M554.931 599.949H574.891C576.479 599.949 578.003 600.461 579.126 601.373C580.249 602.285 580.88 603.522 580.88 604.811V637.546C580.88 638.835 580.249 640.072 579.126 640.983C578.003 641.895 576.48 642.407 574.892 642.407H554.93C553.342 642.407 551.819 641.895 550.696 640.983C549.573 640.072 548.942 638.835 548.942 637.546V604.811C548.942 603.522 549.573 602.285 550.696 601.373C551.819 600.461 553.342 599.949 554.931 599.949Z" fill="#DCE8F6" stroke="#754551" stroke-width="1.19242" stroke-linecap="round" stroke-linejoin="round"/>
<path d="M1394.69 670.501C1394.56 669.036 1394.42 667.655 1394.3 666.348C1394.18 665.042 1394.16 663.815 1394.09 662.683C1394.02 661.552 1393.95 660.508 1393.96 659.566C1393.93 658.328 1393.91 657.289 1393.91 656.415C1396.57 654.297 1415.61 637.889 1399.96 614.575C1399.96 614.575 1371.04 631.57 1393.39 656.405C1393.23 657.263 1393.05 658.299 1392.88 659.52C1392.58 661.405 1392.36 663.704 1392.15 666.35C1392.08 667.67 1392.01 669.079 1391.94 670.561C1391.83 672.051 1392.11 673.604 1392.19 675.232C1392.3 676.499 1392.39 677.823 1392.51 679.173C1391.44 678.029 1390.02 676.525 1388.6 675.01C1387.89 674.25 1387.17 673.484 1386.5 672.777C1386.24 672.52 1385.99 672.269 1385.74 672.024C1390.07 639.721 1361.26 635.163 1361.26 635.163C1361.97 669.224 1378.96 672.177 1384.2 672.274C1384.58 672.658 1384.99 673.061 1385.42 673.491C1386.09 674.199 1386.81 674.956 1387.51 675.708C1388.93 677.22 1390.35 678.731 1391.41 679.868C1391.57 680 1391.63 680.169 1391.8 680.266C1391.97 680.371 1392.13 680.466 1392.27 680.561C1392.43 680.655 1392.54 680.722 1392.67 680.804C1392.88 682.393 1393.1 684.019 1393.32 685.698C1393.45 686.625 1393.55 687.566 1393.71 688.515C1393.89 689.457 1394.08 690.414 1394.26 691.38C1394.64 693.314 1395.03 695.291 1395.42 697.298C1395.9 699.32 1396.36 701.304 1396.93 703.358C1397.19 704.329 1397.48 705.311 1397.76 706.289C1397.6 706.03 1397.42 705.778 1397.23 705.534C1396.89 705.075 1396.54 704.611 1396.19 704.144C1395.51 703.215 1394.82 702.278 1394.17 701.404C1393.46 700.556 1392.8 699.767 1392.24 699.086C1392.11 698.921 1391.98 698.762 1391.83 698.61C1391.66 698.478 1391.49 698.361 1391.34 698.24C1391.19 698.136 1391.07 698.066 1390.94 697.977C1390.09 692.957 1384.88 673.141 1354.8 668.658C1354.8 668.658 1352.88 697.558 1390.64 699.115C1390.66 699.167 1390.69 699.213 1390.71 699.268C1390.83 699.434 1390.96 699.593 1391.11 699.743C1391.66 700.409 1392.31 701.185 1393 702.014C1393.64 702.876 1394.32 703.793 1395 704.721C1395.34 705.179 1395.68 705.638 1396.02 706.092C1396.35 706.529 1396.65 706.982 1396.92 707.448C1397.47 708.354 1397.98 709.195 1398.42 709.913C1398.51 710.092 1398.62 710.264 1398.75 710.424C1398.84 710.513 1398.92 710.592 1399.01 710.678C1400.11 714.437 1401.22 718.225 1402.04 722.044C1402.56 724.141 1402.86 726.258 1403.22 728.355C1403.38 729.408 1403.44 730.468 1403.56 731.512C1403.66 732.566 1403.8 733.614 1403.79 734.66C1403.8 734.898 1403.8 735.126 1403.81 735.367C1403.72 735.225 1403.64 735.081 1403.54 734.936C1403.12 734.275 1402.66 733.633 1402.16 733.011C1401.69 732.336 1401.07 731.714 1400.5 731.04C1399.88 730.411 1399.24 729.76 1398.54 729.155C1397.87 728.629 1397.23 728.056 1396.5 727.579C1396.68 727.53 1396.85 727.5 1397.03 727.453C1397.03 727.453 1387.21 703.589 1355.38 708.041C1355.38 708.041 1362.86 735.336 1394.9 727.963C1395.08 728.082 1395.26 728.193 1395.43 728.311C1396.17 728.814 1396.87 729.354 1397.53 729.926C1398.19 730.5 1398.79 731.123 1399.4 731.724C1399.94 732.367 1400.53 732.963 1400.99 733.613C1401.48 734.238 1401.93 734.858 1402.31 735.464C1402.72 736.062 1403.04 736.649 1403.35 737.187C1403.53 737.452 1403.6 737.739 1403.78 737.971C1403.81 738.004 1403.83 738.04 1403.85 738.073C1403.86 739.016 1403.85 739.952 1403.77 740.884C1403.72 741.908 1403.67 742.925 1403.62 743.937C1403.51 744.949 1403.36 745.953 1403.24 746.944C1403.12 747.939 1402.99 748.921 1402.86 749.898C1402.67 750.872 1402.48 751.833 1402.29 752.782C1401.9 754.686 1401.57 756.551 1401.04 758.337C1400.55 760.13 1400.08 761.875 1399.62 763.57C1399.49 763.965 1399.36 764.353 1399.22 764.742C1399.11 764.363 1398.98 763.981 1398.83 763.604C1398.23 762.078 1397.36 760.629 1396.25 759.302C1396.13 759.18 1396.08 759.013 1395.93 758.922C1395.77 758.82 1395.63 758.735 1395.5 758.651C1395.31 758.542 1395.16 758.466 1395 758.382C1394.72 755.735 1391.73 736.34 1365.31 734.135C1365.31 734.135 1363.62 759.551 1394.43 758.696C1394.49 758.844 1394.56 758.993 1394.63 759.174C1394.69 759.296 1394.74 759.432 1394.8 759.571C1394.86 759.704 1395.02 759.797 1395.1 759.933C1396.14 761.172 1396.95 762.524 1397.51 763.948C1397.82 764.702 1398.04 765.478 1398.17 766.265C1398.24 766.623 1398.29 766.985 1398.31 767.349C1398.31 767.403 1398.31 767.448 1398.31 767.5C1398.21 767.804 1398.11 768.108 1398.01 768.407C1397.75 769.178 1397.49 769.941 1397.23 770.685C1396.97 771.416 1396.66 772.127 1396.46 772.844C1396.02 774.27 1395.61 775.62 1395.22 776.892C1394.48 779.45 1393.67 781.639 1393.02 783.45C1391.73 787.081 1391.05 789.177 1391.05 789.177C1391.05 789.177 1392.14 787.21 1393.99 783.736C1394.92 781.992 1396.07 779.888 1397.2 777.409C1397.6 776.563 1398.03 775.664 1398.48 774.74C1398.57 774.701 1398.66 774.669 1398.77 774.624C1398.92 774.563 1399.09 774.495 1399.27 774.423C1399.45 774.362 1399.55 774.206 1399.72 774.106C1400.03 773.853 1400.37 773.623 1400.73 773.417C1401.12 773.203 1401.53 772.976 1401.96 772.743C1402.39 772.509 1402.81 772.247 1403.28 772.019C1403.76 771.83 1404.25 771.624 1404.74 771.42C1405.21 771.202 1405.71 771.015 1406.22 770.864C1406.72 770.703 1407.23 770.554 1407.69 770.412C1408.16 770.271 1408.63 770.157 1409.11 770.069C1409.57 769.981 1409.99 769.858 1410.39 769.812C1410.59 769.799 1410.79 769.772 1410.98 769.731C1411.07 769.691 1411.15 769.662 1411.24 769.628C1416.68 770.801 1441.87 774.858 1458.59 753.526C1458.59 753.526 1426.66 741.351 1410.6 768.634C1410.45 768.654 1410.3 768.696 1410.13 768.706C1409.7 768.76 1409.25 768.883 1408.76 768.975C1408.25 769.071 1407.75 769.193 1407.26 769.339C1406.75 769.492 1406.22 769.653 1405.69 769.821C1405.15 769.987 1404.63 770.183 1404.12 770.408C1403.6 770.621 1403.09 770.837 1402.58 771.052C1402.09 771.284 1401.64 771.557 1401.19 771.801C1400.74 772.048 1400.31 772.29 1399.89 772.52C1399.7 772.619 1399.51 772.735 1399.35 772.864C1399.87 771.651 1400.21 770.338 1400.68 769.008C1401.21 767.436 1401.75 765.803 1402.32 764.108C1402.78 762.388 1403.26 760.616 1403.76 758.797C1404.3 756.98 1404.63 755.074 1405.03 753.134C1405.22 752.169 1405.42 751.187 1405.61 750.199C1405.68 749.688 1405.75 749.165 1405.81 748.648C1405.89 748.626 1405.95 748.602 1406.03 748.582C1406.16 748.534 1406.21 748.413 1406.33 748.344C1407.14 747.686 1408.23 746.809 1409.3 745.933C1410.38 745.055 1411.46 744.176 1412.27 743.512C1412.33 743.449 1412.41 743.407 1412.48 743.353C1419.4 742.537 1442.76 738.047 1448.34 714.292C1448.34 714.292 1412.63 712.509 1410.55 743.316C1409.87 743.87 1409.1 744.506 1408.32 745.132C1407.52 745.784 1406.72 746.434 1406.02 746.997C1406.14 746.041 1406.29 745.079 1406.38 744.098C1406.44 743.06 1406.49 742.013 1406.55 740.964C1406.73 738.859 1406.61 736.729 1406.57 734.572C1406.57 733.499 1406.42 732.426 1406.33 731.344C1406.21 730.268 1406.15 729.176 1405.98 728.097C1405.7 726.494 1405.44 724.882 1405.11 723.28C1405.15 723.104 1405.18 722.926 1405.19 722.748C1405.34 721.741 1405.39 720.565 1405.67 719.301C1405.92 718.04 1406.15 716.694 1406.48 715.354C1407.08 712.675 1407.82 710.011 1408.38 708.012C1408.47 707.777 1408.53 707.539 1408.58 707.298C1408.59 707.168 1408.6 707.043 1408.61 706.919C1412.07 705.521 1437.41 694.319 1426.27 669.117C1426.27 669.117 1391.17 686.677 1407.62 706.349C1407.61 706.373 1407.59 706.397 1407.58 706.42C1407.47 706.615 1407.36 706.819 1407.24 707.039C1407.13 707.258 1407.12 707.511 1407.03 707.759C1406.45 709.767 1405.71 712.442 1405.11 715.149C1404.77 716.496 1404.54 717.866 1404.29 719.143C1404.28 719.235 1404.27 719.325 1404.25 719.416C1403.4 715.891 1402.37 712.429 1401.38 709.013C1400.77 706.952 1400.2 704.908 1399.65 702.903C1399.09 700.896 1398.62 698.833 1398.15 696.891C1397.76 694.912 1397.38 692.957 1397.01 691.048C1396.83 690.094 1396.65 689.149 1396.46 688.215C1396.3 687.28 1396.21 686.351 1396.08 685.437C1395.86 683.795 1395.65 682.205 1395.45 680.648C1395.52 680.199 1395.63 679.753 1395.77 679.315C1395.92 678.741 1396.11 678.175 1396.34 677.618C1396.55 677.054 1396.8 676.498 1397.08 675.956C1397.32 675.414 1397.66 674.906 1397.94 674.4C1398.5 673.496 1399.13 672.622 1399.82 671.783C1399.96 671.59 1400.15 671.446 1400.26 671.259C1400.36 671.07 1400.47 670.887 1400.56 670.722C1400.56 670.71 1400.57 670.702 1400.58 670.688C1406.09 669.298 1423.78 663.375 1419.08 645.566C1419.08 645.566 1393.73 650.401 1398.93 670.825C1398.85 670.938 1398.77 671.046 1398.67 671.147C1397.94 672.028 1397.28 672.945 1396.7 673.893C1396.4 674.428 1396.05 674.955 1395.79 675.529C1395.54 676.029 1395.31 676.542 1395.11 677.064C1395.06 676.401 1395.02 675.747 1394.97 675.105C1394.81 673.499 1394.8 671.963 1394.69 670.501Z" fill="#E40037"/>
<path d="M398.596 564.807C398.596 565.502 398.342 566.182 397.867 566.76C397.391 567.338 396.715 567.788 395.924 568.054C395.133 568.32 394.263 568.39 393.423 568.254C392.584 568.118 391.813 567.784 391.207 567.292C390.602 566.801 390.19 566.175 390.023 565.493C389.856 564.811 389.941 564.105 390.269 563.463C390.597 562.82 391.151 562.272 391.863 561.886C392.575 561.499 393.412 561.293 394.268 561.293C395.416 561.294 396.517 561.664 397.328 562.323C398.14 562.982 398.596 563.875 398.596 564.807V564.807Z" fill="#CBABB3"/>
<path d="M423.218 564.807C423.219 565.502 422.965 566.182 422.489 566.76C422.014 567.338 421.338 567.788 420.547 568.054C419.756 568.32 418.886 568.39 418.046 568.254C417.206 568.118 416.435 567.784 415.83 567.292C415.224 566.801 414.812 566.175 414.645 565.493C414.478 564.811 414.564 564.105 414.892 563.463C415.219 562.82 415.774 562.272 416.486 561.886C417.198 561.499 418.034 561.293 418.891 561.293C420.038 561.294 421.139 561.664 421.951 562.323C422.762 562.982 423.218 563.875 423.218 564.807Z" fill="#CBABB3"/>
<path d="M447.842 564.807C447.842 565.502 447.588 566.182 447.113 566.76C446.637 567.338 445.961 567.788 445.17 568.054C444.379 568.32 443.509 568.39 442.669 568.254C441.829 568.118 441.058 567.783 440.453 567.292C439.847 566.8 439.435 566.174 439.269 565.492C439.102 564.81 439.188 564.103 439.516 563.461C439.844 562.819 440.399 562.271 441.111 561.885C441.823 561.499 442.66 561.293 443.516 561.293C444.085 561.294 444.647 561.384 445.172 561.561C445.697 561.738 446.174 561.997 446.576 562.323C446.977 562.649 447.296 563.037 447.513 563.463C447.731 563.889 447.842 564.346 447.842 564.807V564.807Z" fill="#CBABB3"/>
<path d="M472.467 564.807C472.467 565.502 472.213 566.182 471.738 566.759C471.262 567.337 470.586 567.788 469.795 568.054C469.005 568.32 468.134 568.389 467.295 568.254C466.455 568.118 465.684 567.783 465.079 567.292C464.473 566.801 464.061 566.174 463.894 565.493C463.727 564.811 463.813 564.105 464.141 563.463C464.468 562.82 465.023 562.272 465.735 561.886C466.446 561.499 467.283 561.293 468.139 561.293C468.708 561.293 469.271 561.384 469.796 561.561C470.321 561.737 470.798 561.996 471.2 562.322C471.602 562.649 471.921 563.036 472.138 563.462C472.355 563.889 472.467 564.346 472.467 564.807V564.807Z" fill="#CBABB3"/>
<path d="M497.093 564.807C497.093 565.502 496.839 566.182 496.364 566.759C495.888 567.337 495.212 567.788 494.421 568.054C493.63 568.32 492.76 568.389 491.92 568.254C491.081 568.118 490.31 567.783 489.704 567.292C489.099 566.801 488.687 566.174 488.52 565.493C488.353 564.811 488.439 564.105 488.766 563.462C489.094 562.82 489.649 562.272 490.361 561.885C491.072 561.499 491.909 561.293 492.765 561.293C493.913 561.294 495.014 561.664 495.825 562.323C496.637 562.982 497.093 563.875 497.093 564.807V564.807Z" fill="#CBABB3"/>
<path d="M521.716 564.807C521.716 565.502 521.462 566.182 520.986 566.76C520.511 567.338 519.835 567.788 519.044 568.054C518.253 568.32 517.382 568.389 516.543 568.254C515.703 568.118 514.932 567.783 514.326 567.292C513.721 566.8 513.309 566.174 513.142 565.492C512.976 564.81 513.062 564.103 513.39 563.461C513.718 562.819 514.273 562.271 514.985 561.885C515.697 561.499 516.534 561.293 517.39 561.293C518.538 561.294 519.638 561.664 520.449 562.323C521.26 562.982 521.716 563.876 521.716 564.807V564.807Z" fill="#CBABB3"/>
<path d="M398.596 586.673C398.596 587.368 398.343 588.047 397.867 588.625C397.392 589.204 396.716 589.654 395.925 589.92C395.135 590.187 394.264 590.256 393.424 590.121C392.585 589.986 391.813 589.651 391.208 589.16C390.602 588.668 390.19 588.042 390.023 587.36C389.856 586.679 389.941 585.972 390.269 585.33C390.596 584.688 391.151 584.139 391.863 583.753C392.575 583.366 393.412 583.16 394.268 583.16C395.415 583.161 396.515 583.531 397.327 584.19C398.138 584.848 398.595 585.741 398.596 586.673V586.673Z" fill="#CBABB3"/>
<path d="M423.219 586.673C423.219 587.368 422.966 588.047 422.491 588.625C422.015 589.204 421.339 589.654 420.548 589.92C419.758 590.187 418.887 590.256 418.048 590.121C417.208 589.986 416.436 589.651 415.831 589.16C415.225 588.668 414.813 588.042 414.646 587.36C414.479 586.679 414.564 585.972 414.892 585.33C415.219 584.688 415.774 584.139 416.486 583.753C417.198 583.366 418.035 583.16 418.891 583.16C420.038 583.161 421.138 583.531 421.95 584.19C422.761 584.848 423.218 585.741 423.219 586.673V586.673Z" fill="#CBABB3"/>
<path d="M447.842 586.673C447.843 587.368 447.589 588.047 447.114 588.626C446.638 589.204 445.962 589.654 445.171 589.921C444.38 590.187 443.51 590.257 442.67 590.121C441.83 589.985 441.059 589.651 440.453 589.159C439.848 588.668 439.436 588.041 439.269 587.359C439.102 586.678 439.188 585.971 439.516 585.329C439.844 584.686 440.399 584.138 441.111 583.752C441.823 583.366 442.66 583.16 443.517 583.16C444.664 583.161 445.763 583.531 446.574 584.19C447.385 584.848 447.841 585.741 447.842 586.673Z" fill="#CBABB3"/>
<path d="M472.467 586.673C472.468 587.368 472.214 588.047 471.739 588.625C471.263 589.203 470.588 589.654 469.797 589.92C469.006 590.186 468.136 590.256 467.296 590.121C466.456 589.985 465.685 589.651 465.079 589.159C464.474 588.668 464.061 588.042 463.894 587.36C463.727 586.679 463.813 585.972 464.14 585.33C464.468 584.688 465.023 584.139 465.734 583.753C466.446 583.366 467.283 583.16 468.139 583.16C469.287 583.161 470.387 583.531 471.199 584.189C472.01 584.848 472.466 585.741 472.467 586.673V586.673Z" fill="#CBABB3"/>
<path d="M497.093 586.673C497.093 587.368 496.84 588.047 496.364 588.625C495.889 589.203 495.213 589.654 494.422 589.92C493.632 590.186 492.761 590.256 491.922 590.121C491.082 589.985 490.31 589.651 489.705 589.159C489.1 588.668 488.687 588.042 488.52 587.36C488.353 586.678 488.439 585.972 488.766 585.33C489.094 584.688 489.649 584.139 490.36 583.753C491.072 583.366 491.909 583.16 492.765 583.16C493.912 583.161 495.013 583.531 495.824 584.19C496.635 584.848 497.092 585.741 497.093 586.673V586.673Z" fill="#CBABB3"/>
<path d="M521.715 586.673C521.716 587.368 521.462 588.047 520.987 588.626C520.511 589.204 519.835 589.654 519.045 589.921C518.254 590.187 517.383 590.256 516.543 590.121C515.703 589.985 514.932 589.651 514.327 589.159C513.721 588.667 513.309 588.041 513.142 587.359C512.975 586.677 513.061 585.971 513.389 585.329C513.717 584.686 514.272 584.138 514.984 583.752C515.696 583.366 516.534 583.16 517.39 583.16C518.537 583.161 519.636 583.532 520.447 584.19C521.258 584.849 521.714 585.741 521.715 586.673Z" fill="#CBABB3"/>
<path d="M398.596 608.541C398.596 609.236 398.341 609.915 397.866 610.493C397.39 611.07 396.714 611.521 395.923 611.786C395.132 612.052 394.262 612.122 393.422 611.986C392.583 611.85 391.812 611.515 391.207 611.024C390.601 610.532 390.189 609.906 390.022 609.224C389.856 608.543 389.941 607.836 390.269 607.194C390.597 606.552 391.152 606.004 391.863 605.618C392.575 605.231 393.412 605.025 394.268 605.026C394.836 605.026 395.399 605.116 395.925 605.293C396.45 605.47 396.927 605.729 397.329 606.055C397.731 606.382 398.05 606.769 398.267 607.196C398.484 607.622 398.596 608.079 398.596 608.541V608.541Z" fill="#CBABB3"/>
<path d="M423.219 608.541C423.219 609.236 422.965 609.915 422.489 610.493C422.013 611.07 421.337 611.521 420.546 611.786C419.755 612.052 418.885 612.122 418.045 611.986C417.206 611.85 416.435 611.515 415.83 611.024C415.224 610.532 414.812 609.906 414.646 609.224C414.479 608.543 414.565 607.836 414.892 607.194C415.22 606.552 415.775 606.004 416.486 605.618C417.198 605.231 418.035 605.025 418.891 605.026C419.46 605.025 420.022 605.116 420.548 605.293C421.073 605.47 421.55 605.729 421.952 606.055C422.354 606.382 422.673 606.769 422.89 607.196C423.107 607.622 423.219 608.079 423.219 608.541V608.541Z" fill="#CBABB3"/>
<path d="M447.842 608.541C447.842 609.236 447.588 609.915 447.112 610.493C446.636 611.071 445.96 611.521 445.169 611.787C444.378 612.052 443.507 612.122 442.668 611.986C441.828 611.85 441.057 611.515 440.452 611.023C439.847 610.532 439.435 609.905 439.269 609.223C439.102 608.542 439.188 607.835 439.516 607.193C439.844 606.551 440.399 606.002 441.111 605.617C441.823 605.231 442.66 605.025 443.517 605.026C444.085 605.026 444.648 605.117 445.173 605.293C445.698 605.47 446.175 605.729 446.577 606.055C446.978 606.382 447.297 606.769 447.514 607.196C447.731 607.622 447.843 608.079 447.842 608.541V608.541Z" fill="#CBABB3"/>
<path d="M472.467 608.541C472.467 609.236 472.213 609.915 471.737 610.493C471.261 611.07 470.585 611.52 469.794 611.786C469.003 612.052 468.133 612.121 467.294 611.986C466.454 611.85 465.683 611.515 465.078 611.024C464.473 610.532 464.061 609.906 463.894 609.224C463.727 608.543 463.813 607.836 464.141 607.194C464.468 606.552 465.023 606.004 465.735 605.618C466.447 605.231 467.283 605.025 468.139 605.026C468.708 605.025 469.271 605.116 469.796 605.293C470.321 605.469 470.799 605.728 471.201 606.055C471.603 606.381 471.921 606.769 472.139 607.195C472.356 607.622 472.468 608.079 472.467 608.541V608.541Z" fill="#CBABB3"/>
<path d="M497.093 608.541C497.093 609.236 496.838 609.915 496.363 610.493C495.887 611.07 495.211 611.521 494.42 611.786C493.629 612.052 492.759 612.121 491.919 611.986C491.08 611.85 490.309 611.515 489.704 611.024C489.099 610.532 488.687 609.906 488.52 609.224C488.353 608.543 488.439 607.836 488.767 607.194C489.094 606.552 489.649 606.003 490.361 605.617C491.073 605.231 491.909 605.025 492.765 605.026C493.334 605.026 493.897 605.116 494.422 605.293C494.947 605.47 495.424 605.729 495.826 606.055C496.228 606.382 496.547 606.769 496.764 607.196C496.981 607.622 497.093 608.079 497.093 608.541V608.541Z" fill="#CBABB3"/>
<path d="M521.716 608.541C521.716 609.236 521.461 609.915 520.986 610.493C520.51 611.071 519.833 611.521 519.042 611.787C518.251 612.052 517.381 612.122 516.541 611.986C515.702 611.85 514.931 611.515 514.326 611.023C513.721 610.531 513.309 609.905 513.142 609.223C512.976 608.542 513.062 607.835 513.39 607.193C513.718 606.551 514.273 606.002 514.985 605.617C515.697 605.231 516.534 605.025 517.39 605.026C517.959 605.026 518.521 605.117 519.046 605.294C519.571 605.47 520.048 605.729 520.45 606.056C520.852 606.382 521.17 606.77 521.387 607.196C521.605 607.622 521.716 608.079 521.716 608.541Z" fill="#CBABB3"/>
<path d="M398.596 630.407C398.596 631.102 398.342 631.782 397.867 632.36C397.391 632.938 396.715 633.388 395.925 633.654C395.134 633.92 394.263 633.99 393.424 633.855C392.584 633.719 391.813 633.384 391.207 632.893C390.602 632.401 390.19 631.775 390.023 631.094C389.856 630.412 389.941 629.705 390.269 629.063C390.597 628.421 391.151 627.872 391.863 627.486C392.575 627.1 393.412 626.894 394.268 626.894C394.836 626.894 395.399 626.985 395.924 627.161C396.449 627.338 396.926 627.596 397.328 627.923C397.73 628.249 398.049 628.636 398.267 629.063C398.484 629.489 398.596 629.946 398.596 630.407Z" fill="#CBABB3"/>
<path d="M423.218 630.407C423.219 631.102 422.965 631.782 422.489 632.36C422.014 632.938 421.338 633.388 420.547 633.654C419.756 633.92 418.886 633.99 418.046 633.855C417.207 633.719 416.435 633.384 415.83 632.893C415.225 632.401 414.812 631.775 414.645 631.094C414.478 630.412 414.564 629.705 414.891 629.063C415.219 628.421 415.774 627.872 416.486 627.486C417.198 627.1 418.034 626.894 418.891 626.894C419.459 626.894 420.022 626.985 420.547 627.161C421.072 627.338 421.549 627.596 421.951 627.923C422.353 628.249 422.672 628.636 422.889 629.063C423.107 629.489 423.219 629.946 423.218 630.407V630.407Z" fill="#CBABB3"/>
<path d="M447.842 630.407C447.842 631.102 447.589 631.782 447.113 632.36C446.637 632.938 445.961 633.388 445.17 633.654C444.379 633.921 443.509 633.99 442.669 633.854C441.83 633.719 441.058 633.384 440.453 632.892C439.848 632.401 439.436 631.774 439.269 631.093C439.102 630.411 439.188 629.704 439.516 629.062C439.844 628.42 440.399 627.871 441.111 627.485C441.823 627.099 442.66 626.894 443.516 626.894C444.085 626.894 444.647 626.985 445.172 627.161C445.697 627.338 446.174 627.597 446.576 627.923C446.978 628.249 447.296 628.637 447.514 629.063C447.731 629.489 447.843 629.946 447.842 630.407V630.407Z" fill="#CBABB3"/>
<path d="M472.467 630.407C472.467 631.102 472.214 631.782 471.738 632.36C471.263 632.938 470.587 633.388 469.796 633.654C469.005 633.92 468.135 633.99 467.295 633.854C466.455 633.719 465.684 633.384 465.079 632.893C464.474 632.401 464.061 631.775 463.894 631.093C463.727 630.412 463.813 629.705 464.14 629.063C464.468 628.421 465.023 627.872 465.735 627.486C466.446 627.1 467.283 626.894 468.139 626.894C468.708 626.894 469.271 626.984 469.796 627.161C470.321 627.337 470.798 627.596 471.2 627.922C471.602 628.249 471.921 628.636 472.138 629.062C472.356 629.489 472.467 629.946 472.467 630.407Z" fill="#CBABB3"/>
<path d="M497.093 630.407C497.093 631.102 496.839 631.782 496.364 632.36C495.888 632.938 495.212 633.388 494.422 633.654C493.631 633.92 492.76 633.99 491.921 633.854C491.081 633.719 490.31 633.384 489.705 632.893C489.099 632.401 488.687 631.775 488.52 631.093C488.353 630.412 488.439 629.705 488.766 629.063C489.094 628.421 489.649 627.872 490.361 627.486C491.072 627.1 491.909 626.894 492.765 626.894C493.334 626.894 493.896 626.985 494.421 627.161C494.946 627.338 495.424 627.597 495.825 627.923C496.227 628.249 496.546 628.636 496.764 629.063C496.981 629.489 497.093 629.946 497.093 630.407V630.407Z" fill="#CBABB3"/>
<path d="M521.716 630.407C521.716 631.102 521.462 631.782 520.987 632.36C520.511 632.938 519.835 633.388 519.044 633.654C518.253 633.92 517.383 633.99 516.543 633.854C515.703 633.719 514.932 633.384 514.327 632.892C513.721 632.401 513.309 631.774 513.142 631.092C512.976 630.411 513.062 629.704 513.39 629.062C513.718 628.42 514.273 627.871 514.985 627.485C515.697 627.099 516.534 626.894 517.39 626.894C518.538 626.894 519.638 627.264 520.449 627.923C521.261 628.582 521.716 629.476 521.716 630.407Z" fill="#CBABB3"/>
<path d="M1036.35 378.318C1036.35 378.829 1036.16 379.33 1035.81 379.755C1035.46 380.18 1034.97 380.512 1034.38 380.708C1033.8 380.904 1033.16 380.955 1032.54 380.855C1031.92 380.755 1031.36 380.509 1030.91 380.147C1030.47 379.785 1030.16 379.325 1030.04 378.823C1029.92 378.321 1029.98 377.801 1030.22 377.328C1030.46 376.856 1030.87 376.452 1031.39 376.168C1031.92 375.884 1032.53 375.732 1033.16 375.732C1034.01 375.732 1034.82 376.005 1035.42 376.49C1036.01 376.975 1036.35 377.632 1036.35 378.318V378.318Z" fill="#E40037"/>
<path d="M1054.47 378.318C1054.47 378.829 1054.28 379.329 1053.93 379.755C1053.58 380.18 1053.09 380.512 1052.5 380.707C1051.92 380.903 1051.28 380.954 1050.66 380.855C1050.05 380.755 1049.48 380.508 1049.03 380.147C1048.59 379.785 1048.28 379.324 1048.16 378.823C1048.04 378.321 1048.1 377.801 1048.34 377.328C1048.58 376.856 1048.99 376.452 1049.52 376.168C1050.04 375.884 1050.66 375.732 1051.29 375.732C1052.13 375.732 1052.94 376.005 1053.54 376.49C1054.13 376.975 1054.47 377.632 1054.47 378.318V378.318Z" fill="#E40037"/>
<path d="M1072.59 378.318C1072.59 378.83 1072.41 379.33 1072.06 379.755C1071.71 380.181 1071.21 380.512 1070.63 380.708C1070.04 380.904 1069.4 380.955 1068.78 380.855C1068.17 380.756 1067.6 380.509 1067.15 380.147C1066.71 379.785 1066.4 379.324 1066.28 378.823C1066.16 378.321 1066.22 377.8 1066.46 377.328C1066.71 376.855 1067.11 376.451 1067.64 376.167C1068.16 375.883 1068.78 375.732 1069.41 375.732C1070.25 375.732 1071.06 376.005 1071.66 376.49C1072.26 376.975 1072.59 377.632 1072.59 378.318V378.318Z" fill="#E40037"/>
<path d="M1090.71 378.318C1090.71 378.829 1090.53 379.33 1090.18 379.755C1089.83 380.18 1089.33 380.512 1088.75 380.708C1088.17 380.904 1087.53 380.955 1086.91 380.855C1086.29 380.755 1085.72 380.509 1085.28 380.147C1084.83 379.785 1084.53 379.324 1084.4 378.823C1084.28 378.321 1084.35 377.801 1084.59 377.328C1084.83 376.856 1085.24 376.452 1085.76 376.168C1086.28 375.884 1086.9 375.732 1087.53 375.732C1087.95 375.732 1088.36 375.799 1088.75 375.929C1089.14 376.059 1089.49 376.249 1089.78 376.49C1090.08 376.73 1090.31 377.015 1090.47 377.328C1090.63 377.642 1090.71 377.978 1090.71 378.318V378.318Z" fill="#E40037"/>
<path d="M1108.84 378.318C1108.84 378.829 1108.65 379.329 1108.3 379.755C1107.95 380.18 1107.46 380.512 1106.87 380.708C1106.29 380.903 1105.65 380.955 1105.03 380.855C1104.41 380.755 1103.85 380.509 1103.4 380.148C1102.96 379.786 1102.65 379.325 1102.53 378.823C1102.41 378.322 1102.47 377.802 1102.71 377.329C1102.95 376.857 1103.36 376.453 1103.88 376.168C1104.41 375.884 1105.02 375.732 1105.65 375.732C1106.5 375.732 1107.31 376.005 1107.91 376.49C1108.5 376.974 1108.84 377.632 1108.84 378.318Z" fill="#E40037"/>
<path d="M1126.96 378.318C1126.96 378.83 1126.77 379.33 1126.42 379.755C1126.07 380.181 1125.58 380.513 1124.99 380.709C1124.41 380.905 1123.77 380.956 1123.15 380.856C1122.53 380.756 1121.97 380.51 1121.52 380.148C1121.07 379.786 1120.77 379.325 1120.65 378.823C1120.53 378.321 1120.59 377.801 1120.83 377.328C1121.07 376.856 1121.48 376.452 1122 376.167C1122.53 375.883 1123.15 375.732 1123.78 375.732C1124.62 375.733 1125.43 376.005 1126.03 376.49C1126.62 376.975 1126.96 377.632 1126.96 378.318Z" fill="#E40037"/>
<path d="M1036.35 394.41C1036.35 394.922 1036.16 395.422 1035.81 395.847C1035.46 396.273 1034.97 396.605 1034.38 396.801C1033.8 396.996 1033.16 397.048 1032.54 396.948C1031.93 396.849 1031.36 396.602 1030.91 396.241C1030.47 395.879 1030.16 395.418 1030.04 394.916C1029.92 394.415 1029.98 393.894 1030.22 393.422C1030.46 392.949 1030.87 392.545 1031.39 392.261C1031.92 391.977 1032.53 391.825 1033.16 391.825C1034.01 391.826 1034.82 392.098 1035.42 392.583C1036.01 393.067 1036.35 393.725 1036.35 394.41V394.41Z" fill="#E40037"/>
<path d="M1054.47 394.41C1054.47 394.922 1054.28 395.422 1053.93 395.847C1053.58 396.273 1053.09 396.604 1052.51 396.8C1051.92 396.996 1051.28 397.047 1050.66 396.948C1050.05 396.848 1049.48 396.602 1049.03 396.24C1048.59 395.879 1048.28 395.418 1048.16 394.916C1048.04 394.414 1048.1 393.894 1048.34 393.422C1048.58 392.949 1048.99 392.545 1049.52 392.261C1050.04 391.977 1050.66 391.825 1051.29 391.825C1052.13 391.826 1052.94 392.098 1053.54 392.583C1054.13 393.067 1054.47 393.725 1054.47 394.41V394.41Z" fill="#E40037"/>
<path d="M1072.59 394.41C1072.59 394.922 1072.41 395.422 1072.06 395.848C1071.71 396.273 1071.21 396.605 1070.63 396.801C1070.04 396.997 1069.4 397.048 1068.79 396.949C1068.17 396.849 1067.6 396.603 1067.15 396.241C1066.71 395.879 1066.4 395.418 1066.28 394.916C1066.16 394.414 1066.22 393.894 1066.46 393.421C1066.7 392.948 1067.11 392.545 1067.64 392.26C1068.16 391.976 1068.78 391.825 1069.41 391.825C1070.25 391.826 1071.06 392.098 1071.66 392.583C1072.26 393.067 1072.59 393.725 1072.59 394.41V394.41Z" fill="#E40037"/>
<path d="M1090.71 394.41C1090.72 394.922 1090.53 395.422 1090.18 395.847C1089.83 396.273 1089.33 396.605 1088.75 396.801C1088.17 396.997 1087.53 397.048 1086.91 396.948C1086.29 396.849 1085.72 396.602 1085.28 396.24C1084.83 395.879 1084.53 395.418 1084.4 394.916C1084.28 394.414 1084.35 393.894 1084.59 393.422C1084.83 392.949 1085.24 392.545 1085.76 392.261C1086.28 391.977 1086.9 391.825 1087.53 391.825C1088.37 391.825 1089.18 392.098 1089.78 392.582C1090.38 393.067 1090.71 393.725 1090.71 394.41V394.41Z" fill="#E40037"/>
<path d="M1108.84 394.41C1108.84 394.922 1108.65 395.422 1108.3 395.847C1107.95 396.273 1107.46 396.604 1106.87 396.8C1106.29 396.996 1105.65 397.048 1105.03 396.948C1104.42 396.849 1103.85 396.603 1103.4 396.241C1102.96 395.879 1102.65 395.419 1102.53 394.917C1102.41 394.415 1102.47 393.895 1102.71 393.423C1102.95 392.95 1103.36 392.546 1103.88 392.262C1104.41 391.977 1105.02 391.825 1105.65 391.825C1106.5 391.825 1107.31 392.098 1107.9 392.582C1108.5 393.067 1108.84 393.724 1108.84 394.41V394.41Z" fill="#E40037"/>
<path d="M1126.96 394.41C1126.96 394.922 1126.77 395.422 1126.42 395.848C1126.07 396.274 1125.58 396.605 1124.99 396.801C1124.41 396.997 1123.77 397.049 1123.15 396.949C1122.53 396.849 1121.97 396.603 1121.52 396.241C1121.08 395.879 1120.77 395.418 1120.65 394.916C1120.53 394.415 1120.59 393.894 1120.83 393.422C1121.07 392.949 1121.48 392.545 1122 392.261C1122.53 391.977 1123.15 391.825 1123.78 391.825C1124.62 391.826 1125.43 392.098 1126.03 392.583C1126.62 393.068 1126.96 393.725 1126.96 394.41V394.41Z" fill="#E40037"/>
<path d="M1036.35 410.504C1036.35 411.015 1036.16 411.515 1035.81 411.94C1035.46 412.366 1034.96 412.697 1034.38 412.893C1033.8 413.088 1033.16 413.14 1032.54 413.04C1031.92 412.94 1031.36 412.694 1030.91 412.332C1030.47 411.97 1030.16 411.509 1030.04 411.007C1029.92 410.506 1029.98 409.986 1030.22 409.513C1030.46 409.041 1030.87 408.637 1031.39 408.353C1031.92 408.069 1032.53 407.917 1033.16 407.917C1034.01 407.917 1034.82 408.19 1035.42 408.675C1036.01 409.16 1036.35 409.818 1036.35 410.504V410.504Z" fill="#E40037"/>
<path d="M1054.47 410.504C1054.47 411.015 1054.28 411.515 1053.93 411.94C1053.58 412.365 1053.09 412.697 1052.5 412.892C1051.92 413.088 1051.28 413.139 1050.66 413.039C1050.05 412.939 1049.48 412.693 1049.03 412.331C1048.59 411.97 1048.28 411.509 1048.16 411.007C1048.04 410.506 1048.1 409.986 1048.34 409.513C1048.58 409.041 1048.99 408.637 1049.52 408.353C1050.04 408.069 1050.66 407.917 1051.29 407.917C1052.13 407.917 1052.94 408.19 1053.54 408.675C1054.14 409.16 1054.47 409.818 1054.47 410.504V410.504Z" fill="#E40037"/>
<path d="M1072.59 410.504C1072.59 411.015 1072.41 411.515 1072.06 411.941C1071.71 412.366 1071.21 412.698 1070.63 412.893C1070.04 413.089 1069.4 413.14 1068.78 413.04C1068.17 412.94 1067.6 412.694 1067.15 412.332C1066.71 411.97 1066.4 411.509 1066.28 411.007C1066.16 410.505 1066.22 409.985 1066.46 409.513C1066.71 409.04 1067.11 408.636 1067.64 408.352C1068.16 408.068 1068.78 407.917 1069.41 407.917C1069.83 407.917 1070.24 407.984 1070.63 408.114C1071.01 408.244 1071.36 408.435 1071.66 408.675C1071.96 408.915 1072.19 409.2 1072.35 409.514C1072.51 409.828 1072.59 410.164 1072.59 410.504V410.504Z" fill="#E40037"/>
<path d="M1090.71 410.504C1090.71 411.015 1090.53 411.515 1090.18 411.94C1089.83 412.366 1089.33 412.697 1088.75 412.893C1088.17 413.089 1087.53 413.14 1086.91 413.04C1086.29 412.94 1085.72 412.693 1085.28 412.332C1084.83 411.97 1084.53 411.509 1084.4 411.007C1084.28 410.505 1084.35 409.985 1084.59 409.513C1084.83 409.04 1085.24 408.636 1085.76 408.352C1086.28 408.068 1086.9 407.917 1087.53 407.917C1087.95 407.917 1088.36 407.984 1088.75 408.114C1089.14 408.244 1089.49 408.434 1089.78 408.675C1090.08 408.915 1090.31 409.2 1090.47 409.514C1090.63 409.828 1090.71 410.164 1090.71 410.504Z" fill="#E40037"/>
<path d="M1108.84 410.504C1108.84 411.015 1108.65 411.515 1108.3 411.94C1107.95 412.366 1107.45 412.697 1106.87 412.893C1106.29 413.088 1105.65 413.14 1105.03 413.04C1104.41 412.94 1103.85 412.694 1103.4 412.332C1102.96 411.971 1102.65 411.51 1102.53 411.008C1102.41 410.506 1102.47 409.986 1102.71 409.514C1102.95 409.041 1103.36 408.637 1103.88 408.353C1104.41 408.069 1105.02 407.917 1105.65 407.917C1106.5 407.917 1107.31 408.19 1107.91 408.675C1108.5 409.16 1108.84 409.818 1108.84 410.504V410.504Z" fill="#E40037"/>
<path d="M1126.96 410.504C1126.96 411.015 1126.77 411.515 1126.42 411.941C1126.07 412.366 1125.58 412.698 1124.99 412.894C1124.41 413.089 1123.77 413.141 1123.15 413.041C1122.53 412.941 1121.97 412.694 1121.52 412.332C1121.07 411.971 1120.77 411.51 1120.65 411.008C1120.53 410.506 1120.59 409.986 1120.83 409.513C1121.07 409.04 1121.48 408.636 1122 408.352C1122.53 408.068 1123.15 407.917 1123.78 407.917C1124.62 407.918 1125.43 408.19 1126.03 408.675C1126.62 409.16 1126.96 409.818 1126.96 410.504V410.504Z" fill="#E40037"/>
<path d="M1036.35 426.596C1036.35 427.108 1036.16 427.608 1035.81 428.033C1035.46 428.458 1034.96 428.79 1034.38 428.986C1033.8 429.182 1033.16 429.233 1032.54 429.133C1031.92 429.033 1031.36 428.787 1030.91 428.425C1030.47 428.063 1030.16 427.602 1030.04 427.101C1029.92 426.599 1029.98 426.079 1030.22 425.606C1030.46 425.134 1030.87 424.73 1031.39 424.446C1031.92 424.162 1032.53 424.01 1033.16 424.01C1033.58 424.01 1034 424.077 1034.38 424.207C1034.77 424.337 1035.12 424.527 1035.42 424.767C1035.71 425.008 1035.95 425.293 1036.11 425.606C1036.27 425.92 1036.35 426.257 1036.35 426.596V426.596Z" fill="#E40037"/>
<path d="M1054.47 426.596C1054.47 427.108 1054.28 427.608 1053.93 428.033C1053.58 428.458 1053.09 428.79 1052.5 428.985C1051.92 429.181 1051.28 429.232 1050.66 429.133C1050.05 429.033 1049.48 428.786 1049.03 428.425C1048.59 428.063 1048.28 427.602 1048.16 427.101C1048.04 426.599 1048.1 426.079 1048.34 425.606C1048.58 425.134 1048.99 424.73 1049.52 424.446C1050.04 424.162 1050.66 424.01 1051.29 424.01C1051.7 424.01 1052.12 424.077 1052.5 424.207C1052.89 424.337 1053.24 424.527 1053.54 424.767C1053.83 425.008 1054.07 425.293 1054.23 425.606C1054.39 425.92 1054.47 426.257 1054.47 426.596V426.596Z" fill="#E40037"/>
<path d="M1072.59 426.596C1072.59 427.108 1072.41 427.608 1072.06 428.033C1071.71 428.459 1071.21 428.791 1070.63 428.986C1070.04 429.182 1069.4 429.233 1068.78 429.133C1068.17 429.034 1067.6 428.787 1067.15 428.425C1066.71 428.063 1066.4 427.602 1066.28 427.1C1066.16 426.599 1066.22 426.078 1066.46 425.606C1066.71 425.133 1067.11 424.729 1067.64 424.445C1068.16 424.161 1068.78 424.01 1069.41 424.01C1069.83 424.01 1070.24 424.077 1070.63 424.207C1071.01 424.337 1071.36 424.527 1071.66 424.767C1071.96 425.008 1072.19 425.293 1072.35 425.607C1072.51 425.92 1072.59 426.257 1072.59 426.596V426.596Z" fill="#E40037"/>
<path d="M1090.71 426.596C1090.71 427.108 1090.53 427.608 1090.18 428.033C1089.83 428.459 1089.33 428.79 1088.75 428.986C1088.17 429.182 1087.53 429.233 1086.91 429.133C1086.29 429.033 1085.72 428.787 1085.28 428.425C1084.83 428.063 1084.53 427.602 1084.4 427.1C1084.28 426.599 1084.35 426.079 1084.59 425.606C1084.83 425.134 1085.24 424.73 1085.76 424.446C1086.28 424.162 1086.9 424.01 1087.53 424.01C1087.95 424.01 1088.36 424.077 1088.75 424.207C1089.14 424.337 1089.49 424.527 1089.78 424.767C1090.08 425.007 1090.31 425.293 1090.47 425.606C1090.63 425.92 1090.72 426.257 1090.71 426.596V426.596Z" fill="#E40037"/>
<path d="M1108.84 426.596C1108.84 427.108 1108.65 427.608 1108.3 428.033C1107.95 428.458 1107.45 428.79 1106.87 428.986C1106.29 429.181 1105.65 429.233 1105.03 429.133C1104.41 429.033 1103.85 428.787 1103.4 428.425C1102.96 428.064 1102.65 427.603 1102.53 427.101C1102.41 426.6 1102.47 426.08 1102.71 425.607C1102.95 425.135 1103.36 424.731 1103.88 424.446C1104.41 424.162 1105.02 424.01 1105.65 424.01C1106.07 424.01 1106.49 424.077 1106.87 424.207C1107.26 424.337 1107.61 424.527 1107.91 424.767C1108.2 425.007 1108.44 425.292 1108.6 425.606C1108.76 425.92 1108.84 426.256 1108.84 426.596V426.596Z" fill="#E40037"/>
<path d="M1126.96 426.596C1126.96 427.108 1126.77 427.608 1126.42 428.034C1126.07 428.459 1125.58 428.791 1124.99 428.987C1124.41 429.183 1123.77 429.234 1123.15 429.134C1122.53 429.034 1121.97 428.788 1121.52 428.426C1121.07 428.064 1120.77 427.603 1120.65 427.101C1120.53 426.599 1120.59 426.079 1120.83 425.606C1121.07 425.133 1121.48 424.73 1122 424.445C1122.53 424.161 1123.15 424.01 1123.78 424.01C1124.62 424.01 1125.43 424.283 1126.03 424.768C1126.62 425.253 1126.96 425.91 1126.96 426.596V426.596Z" fill="#E40037"/>
<path d="M763.666 773.929C763.666 773.929 739.434 675.206 761.501 681.881C783.572 688.557 786.6 764.796 776.647 775.686" fill="#E40037"/>
<path d="M763.666 773.929C763.666 773.929 739.434 675.206 761.501 681.881C783.572 688.557 786.6 764.796 776.647 775.686" stroke="#754551" stroke-width="1.19242" stroke-miterlimit="10"/>
<path d="M761.315 777.564C761.315 777.564 757.001 737.252 733.255 739.354C709.507 741.46 744.049 774.408 750.092 777.564" fill="#CBABB3"/>
<path d="M761.315 777.564C761.315 777.564 757.001 737.252 733.255 739.354C709.507 741.46 744.049 774.408 750.092 777.564" stroke="#754551" stroke-width="1.19242" stroke-linecap="round" stroke-linejoin="round"/>
<path d="M733.684 722.88C733.684 722.88 727.209 738.654 744.479 735.85C761.751 733.045 756.731 732.517 756.731 732.517" fill="#CBABB3"/>
<path d="M733.684 722.88C733.684 722.88 727.209 738.654 744.479 735.85C761.751 733.045 756.731 732.517 756.731 732.517" stroke="#754551" stroke-width="1.19242" stroke-miterlimit="10"/>
<path d="M766.499 777.212C766.499 777.212 760.884 716.92 752.682 714.466C744.479 712.014 730.664 717.272 733.684 722.879C736.709 728.488 757.001 777.564 757.001 777.564" fill="#DCE8F6"/>
<path d="M766.499 777.212C766.499 777.212 760.884 716.92 752.682 714.466C744.479 712.014 730.664 717.272 733.684 722.879C736.709 728.488 757.001 777.564 757.001 777.564" stroke="#754551" stroke-width="1.19242" stroke-linecap="round" stroke-linejoin="round"/>
<path d="M815.592 711.043C815.592 711.043 821.218 730.014 810.401 736.338C799.582 742.66 791.361 731.069 791.361 731.069L789.63 710.34" fill="#CBABB3"/>
<path d="M815.592 711.043C815.592 711.043 821.218 730.014 810.401 736.338C799.582 742.66 791.361 731.069 791.361 731.069L789.63 710.34" stroke="#754551" stroke-width="1.19242" stroke-miterlimit="10"/>
<path d="M771.021 776.037C771.021 776.037 777.081 695.936 798.284 700.852C819.487 705.773 815.592 715.258 815.592 715.258C815.592 715.258 810.401 711.395 807.371 716.312C804.342 721.232 788.763 777.444 788.763 777.444" fill="#DCE8F6"/>
<path d="M771.021 776.037C771.021 776.037 777.081 695.936 798.284 700.852C819.487 705.773 815.592 715.258 815.592 715.258C815.592 715.258 810.401 711.395 807.371 716.312C804.342 721.232 788.763 777.444 788.763 777.444" stroke="#754551" stroke-width="1.19242" stroke-linecap="round" stroke-linejoin="round"/>
<path d="M780.569 776.193C780.569 776.193 789.232 736.346 812.659 740.137C836.085 743.926 798.113 774.282 791.75 776.995" fill="#CBABB3"/>
<path d="M780.569 776.193C780.569 776.193 789.232 736.346 812.659 740.137C836.085 743.926 798.113 774.282 791.75 776.995" stroke="#754551" stroke-width="1.19242" stroke-miterlimit="10"/>
<path d="M761.069 686.8C761.069 686.8 772.44 744.399 768.543 776.018" stroke="#754551" stroke-width="0.794946" stroke-linecap="round" stroke-linejoin="round"/>
<path d="M744.626 717.719C744.626 717.719 759.337 759.525 760.637 773.929" stroke="#754551" stroke-width="0.794946" stroke-linecap="round" stroke-linejoin="round"/>
<path d="M732.942 744.77C732.942 744.77 750.249 765.85 752.847 774.983" stroke="#754551" stroke-width="0.794946" stroke-linecap="round" stroke-linejoin="round"/>
<path d="M799.149 706.475C799.149 706.475 781.407 749.686 776.647 773.228" stroke="#754551" stroke-width="0.794946" stroke-linecap="round" stroke-linejoin="round"/>
<path d="M785.077 775.783L784.66 775.592C794.507 761.34 808.342 746.557 808.479 746.409L808.858 746.644C808.72 746.791 794.908 761.556 785.077 775.783Z" stroke="#754551" stroke-width="0.794946" stroke-linecap="round" stroke-linejoin="round"/>
<path d="M808.671 774.285H737.125V787.281H808.671V774.285Z" fill="#E40037" stroke="#754551" stroke-width="1.19242" stroke-miterlimit="10"/>
<path d="M1374.5 585.401V577.716H1366.92C1366.31 575.193 1365.08 572.794 1363.32 570.656L1368.68 566.306L1361.99 560.871L1356.63 565.221C1353.99 563.79 1351.04 562.795 1347.93 562.295V556.146H1338.47V562.295C1335.36 562.795 1332.4 563.789 1329.77 565.221L1324.41 560.871L1317.72 566.306L1323.08 570.656C1321.31 572.794 1320.09 575.193 1319.47 577.716H1311.9V585.401H1319.47C1320.09 587.924 1321.31 590.323 1323.08 592.46L1317.72 596.811L1324.41 602.246L1329.77 597.896C1332.4 599.328 1335.36 600.322 1338.47 600.823V606.971H1347.93V600.823C1351.04 600.322 1353.99 599.327 1356.63 597.896L1361.99 602.246L1368.68 596.811L1363.32 592.46C1365.08 590.323 1366.31 587.924 1366.92 585.401H1374.5ZM1343.2 592.45C1340.55 592.451 1337.95 591.812 1335.75 590.616C1333.54 589.419 1331.82 587.718 1330.8 585.728C1329.79 583.738 1329.52 581.548 1330.04 579.435C1330.56 577.322 1331.83 575.381 1333.71 573.857C1335.59 572.334 1337.98 571.297 1340.58 570.876C1343.18 570.456 1345.88 570.671 1348.33 571.496C1350.78 572.32 1352.88 573.716 1354.35 575.507C1355.83 577.298 1356.61 579.404 1356.61 581.559C1356.61 584.447 1355.2 587.217 1352.68 589.26C1350.17 591.302 1346.76 592.45 1343.2 592.45V592.45Z" fill="#CBABB3"/>
<path d="M1070.15 383.291V377.902H1064.84C1064.41 376.133 1063.55 374.451 1062.31 372.952L1066.07 369.902L1061.38 366.09L1057.62 369.14C1055.77 368.137 1053.7 367.439 1051.52 367.089V362.777H1044.89V367.089C1042.71 367.44 1040.63 368.137 1038.79 369.14L1035.03 366.09L1030.34 369.902L1034.09 372.952C1032.86 374.45 1032 376.133 1031.57 377.902H1026.25V383.291H1031.57C1032 385.06 1032.86 386.743 1034.09 388.241L1030.34 391.291L1035.03 395.103L1038.79 392.053C1040.63 393.056 1042.71 393.753 1044.89 394.104V398.416H1051.52V394.104C1053.7 393.753 1055.77 393.056 1057.62 392.053L1061.38 395.103L1066.07 391.291L1062.31 388.241C1063.55 386.743 1064.41 385.06 1064.84 383.291H1070.15ZM1048.2 388.234C1046.34 388.234 1044.52 387.786 1042.98 386.947C1041.43 386.108 1040.22 384.915 1039.51 383.52C1038.8 382.124 1038.61 380.589 1038.98 379.107C1039.34 377.626 1040.24 376.265 1041.55 375.196C1042.87 374.128 1044.54 373.401 1046.37 373.106C1048.19 372.811 1050.08 372.962 1051.8 373.54C1053.52 374.118 1054.99 375.097 1056.02 376.353C1057.06 377.609 1057.61 379.086 1057.61 380.596C1057.61 382.622 1056.62 384.564 1054.86 385.996C1053.09 387.429 1050.7 388.233 1048.2 388.234V388.234Z" fill="#E40037"/>
<path d="M1072.19 734.282C1072.19 736.083 1071.76 737.866 1070.91 739.53C1070.06 741.194 1068.81 742.706 1067.25 743.98C1065.68 745.254 1063.81 746.264 1061.76 746.953C1059.72 747.641 1057.52 747.996 1055.3 747.995H933.674C931.455 747.996 929.259 747.641 927.209 746.952C925.16 746.263 923.297 745.253 921.729 743.98C920.16 742.706 918.917 741.194 918.068 739.53C917.22 737.866 916.784 736.083 916.784 734.282V734.282C916.783 732.48 917.219 730.697 918.068 729.033C918.916 727.368 920.16 725.856 921.728 724.582C923.297 723.309 925.159 722.298 927.209 721.609C929.258 720.92 931.455 720.566 933.674 720.566H1055.3C1057.52 720.565 1059.72 720.92 1061.77 721.609C1063.82 722.298 1065.68 723.308 1067.25 724.582C1068.82 725.856 1070.06 727.368 1070.91 729.032C1071.76 730.697 1072.19 732.48 1072.19 734.282Z" fill="white" stroke="#754551" stroke-width="1.19242" stroke-linecap="round" stroke-linejoin="round"/>
<path d="M1072.19 655.284C1072.19 657.085 1071.76 658.869 1070.91 660.533C1070.06 662.197 1068.82 663.709 1067.25 664.983C1065.68 666.256 1063.81 667.267 1061.77 667.956C1059.72 668.645 1057.52 668.999 1055.3 668.998H933.674C931.455 668.999 929.259 668.644 927.209 667.955C925.159 667.266 923.297 666.256 921.729 664.982C920.16 663.709 918.916 662.197 918.068 660.533C917.22 658.868 916.783 657.085 916.784 655.284V655.284C916.783 653.483 917.22 651.699 918.068 650.035C918.916 648.371 920.16 646.859 921.729 645.586C923.297 644.312 925.159 643.302 927.209 642.613C929.259 641.924 931.455 641.57 933.674 641.571H1055.3C1057.52 641.57 1059.72 641.924 1061.77 642.613C1063.81 643.302 1065.68 644.312 1067.25 645.585C1068.81 646.859 1070.06 648.371 1070.91 650.035C1071.76 651.699 1072.19 653.483 1072.19 655.284V655.284Z" fill="white" stroke="#754551" stroke-width="1.19242" stroke-linecap="round" stroke-linejoin="round"/>
<path d="M998.661 659.497C998.661 660.361 998.452 661.218 998.044 662.017C997.637 662.816 997.04 663.542 996.287 664.154C995.534 664.765 994.639 665.25 993.655 665.581C992.671 665.912 991.616 666.082 990.551 666.082H932.159C931.094 666.083 930.039 665.912 929.055 665.581C928.071 665.251 927.177 664.765 926.424 664.154C925.671 663.542 925.073 662.816 924.666 662.017C924.259 661.218 924.05 660.361 924.05 659.497V659.497C924.05 658.632 924.259 657.776 924.667 656.977C925.074 656.178 925.671 655.452 926.424 654.84C927.177 654.229 928.072 653.744 929.056 653.413C930.04 653.083 931.094 652.913 932.159 652.913H990.551C991.616 652.913 992.671 653.083 993.655 653.414C994.639 653.744 995.533 654.229 996.286 654.841C997.039 655.452 997.637 656.178 998.044 656.977C998.451 657.776 998.661 658.632 998.661 659.497V659.497Z" fill="#CBABB3"/>
<path d="M1001.45 737.609C1001.45 738.474 1001.25 739.331 1000.84 740.13C1000.43 740.929 999.833 741.655 999.08 742.266C998.327 742.878 997.433 743.363 996.449 743.694C995.465 744.025 994.41 744.195 993.345 744.195H934.952C933.887 744.195 932.832 744.025 931.848 743.694C930.864 743.363 929.97 742.878 929.217 742.266C928.464 741.655 927.867 740.929 927.459 740.13C927.052 739.331 926.843 738.474 926.843 737.609V737.609C926.843 736.745 927.052 735.888 927.459 735.09C927.867 734.291 928.464 733.565 929.217 732.953C929.97 732.342 930.864 731.857 931.849 731.526C932.833 731.195 933.887 731.025 934.952 731.026H993.345C994.41 731.025 995.465 731.196 996.449 731.526C997.433 731.857 998.327 732.342 999.08 732.953C999.833 733.565 1000.43 734.291 1000.84 735.09C1001.25 735.889 1001.45 736.745 1001.45 737.609Z" fill="#CBABB3"/>
<path d="M1419.74 686.76C1419.74 686.76 1587.51 696.773 1675.93 653.033" stroke="#754551" stroke-width="1.98736" stroke-linecap="round" stroke-linejoin="round"/>
<path d="M1328.81 745.315L1338.39 761.845L1319.13 766.302L1310.24 749.528" fill="white"/>
<path d="M1328.81 745.315L1338.39 761.845L1319.13 766.302L1310.24 749.528" stroke="#754551" stroke-width="1.19242" stroke-linecap="round" stroke-linejoin="round"/>
<path d="M1208.44 755.768L1213.83 773.188L1194.87 777.159L1194.07 757.145" fill="white"/>
<path d="M1208.44 755.768L1213.83 773.188L1194.87 777.159L1194.07 757.145" stroke="#754551" stroke-width="1.19242" stroke-linecap="round" stroke-linejoin="round"/>
<path d="M1228.28 548.693C1228.28 548.693 1254.16 561.346 1261.45 579.104C1268.74 596.861 1276.4 674.7 1288.43 687.687C1300.46 700.673 1339.69 743.127 1339.69 743.127L1309.64 757.145C1309.64 757.145 1264.73 707.33 1254.16 692.902C1243.59 678.475 1226.09 613.362 1226.09 613.362C1226.09 613.362 1203.49 663.742 1202.4 684.46C1201.3 705.178 1219.52 761.034 1219.52 761.034L1189.28 761.763C1189.28 761.763 1170.32 709.247 1168.49 682.091C1166.67 654.939 1190 575.031 1190 575.031" fill="#754551"/>
<path d="M1130.53 594.183C1135.91 580.442 1138.5 564.411 1133.68 547.657C1120.01 500.155 1103.06 522.796 1103.06 535.671C1103.06 535.671 1108.68 562.558 1105.66 589.615C1110.16 592.227 1117.91 594.858 1130.53 594.183Z" fill="#CBABB3" stroke="#754551" stroke-width="1.19242" stroke-linecap="round" stroke-linejoin="round"/>
<path d="M1105.66 589.615C1103.78 606.398 1098.59 623.247 1086.66 633.783L1101.42 636.89C1101.42 636.89 1120.66 619.401 1130.53 594.183C1117.91 594.858 1110.16 592.227 1105.66 589.615Z" fill="white" stroke="#754551" stroke-width="1.19242" stroke-linecap="round" stroke-linejoin="round"/>
<path d="M1099.78 535.227C1099.78 535.227 1105.25 509.477 1138.6 513.029C1171.96 516.581 1228.28 548.545 1228.28 548.545C1228.28 548.545 1208.59 581.398 1192.19 581.842C1175.79 582.285 1099.78 556.092 1099.78 537.003" fill="#754551"/>
<path d="M1088.84 634.893L1082.55 643.995L1069.43 652.874L1098.68 654.427L1095.95 647.324L1099.23 636.67" fill="#CBABB3"/>
<path d="M1088.84 634.893L1082.55 643.995L1069.43 652.874L1098.68 654.427L1095.95 647.324L1099.23 636.67" stroke="#754551" stroke-width="1.19242" stroke-linecap="round" stroke-linejoin="round"/>
<path d="M1137.23 559.531C1137.23 559.531 1123.29 540.85 1128.76 529.898C1134.23 518.949 1139.45 518.227 1139.45 518.227C1139.45 518.227 1115.36 509.922 1110.44 526.569C1105.52 543.218 1123.15 554.539 1123.15 554.539L1137.23 559.531Z" fill="#CBABB3"/>
<path d="M1143.25 555.279C1143.25 555.279 1122.75 519.837 1156.46 522.5C1184.59 524.722 1200.41 548.504 1195.67 554.572C1190.93 560.64 1143.25 555.279 1143.25 555.279Z" fill="#CBABB3"/>
<path d="M1321.85 779.029L1323.57 776.552L1344.63 772.573L1347.4 777.073C1347.4 777.073 1286.75 790.942 1284.92 787.361C1284.34 786.216 1283.86 785.565 1283.85 784.951L1321.85 779.029Z" fill="#CBABB3" stroke="#754551" stroke-width="1.19242" stroke-linecap="round" stroke-linejoin="round"/>
<path d="M1321.85 779.029L1283.85 784.951C1283.83 783.643 1280.88 782.624 1288.85 777.283C1293.18 774.385 1303.25 772.921 1306.42 770.236C1309.72 767.395 1312.31 764.061 1314.05 760.419C1314.05 760.419 1323.86 767.443 1328.14 765.302C1332.42 763.161 1337.54 761.061 1337.54 761.061L1344.63 772.574L1323.57 776.552L1321.85 779.029Z" fill="#CBABB3" stroke="#754551" stroke-width="1.19242" stroke-linecap="round" stroke-linejoin="round"/>
<path d="M1195.55 785.468L1197.81 783.298L1219.42 782.612L1221.1 787.456C1221.1 787.456 1158.31 791.798 1157.35 788C1157.04 786.788 1156.72 786.073 1156.85 785.469L1195.55 785.468Z" fill="#CBABB3" stroke="#754551" stroke-width="1.19242" stroke-linecap="round" stroke-linejoin="round"/>
<path d="M1195.55 785.468L1156.85 785.469C1157.14 784.182 1154.48 782.729 1163.55 778.704C1168.47 776.522 1178.7 776.624 1182.43 774.471C1186.34 772.187 1189.66 769.309 1192.21 765.997C1192.21 765.997 1200.22 774.396 1204.92 772.95C1209.61 771.502 1215.13 770.22 1215.13 770.22L1219.42 782.612L1197.81 783.298L1195.55 785.468Z" fill="#CBABB3" stroke="#754551" stroke-width="1.19242" stroke-linecap="round" stroke-linejoin="round"/>
<path d="M1108.25 521.908L1121.52 522.352C1121.52 522.352 1126.19 527.073 1125.21 532.175C1124.25 537.113 1120.35 539.777 1116.18 540.165C1112.01 540.554 1109.35 533.118 1109.35 533.118" fill="white"/>
<path d="M1108.25 521.908L1121.52 522.352C1121.52 522.352 1126.19 527.073 1125.21 532.175C1124.25 537.113 1120.35 539.777 1116.18 540.165C1112.01 540.554 1109.35 533.118 1109.35 533.118" stroke="#754551" stroke-width="1.19242" stroke-linecap="round" stroke-linejoin="round"/>
<path d="M1083.92 532.859C1083.92 532.859 1100.69 560.088 1107.98 552.393C1115.27 544.698 1112.9 522.796 1112.9 522.796C1112.9 522.796 1098.5 521.021 1083.92 532.859Z" fill="white" stroke="#754551" stroke-width="1.19242" stroke-linecap="round" stroke-linejoin="round"/>
<path d="M1102.33 530.787L1107.98 533.229C1107.98 533.229 1106.71 530.639 1108.62 529.973C1110.53 529.307 1114.45 531.231 1113.45 534.488L1117.28 529.604L1112.81 520.355" fill="#754551"/>
<path d="M1113.45 520.429C1113.45 520.429 1112.54 507.036 1096.41 508.812C1087.01 509.845 1067.88 523.093 1082.1 534.635C1082.1 534.635 1105.06 538.482 1113.45 520.429Z" fill="#754551"/>
<path d="M1181.25 580.213C1181.25 580.213 1229.74 570.742 1227.37 548.693L1237.76 554.761C1237.76 554.761 1234.39 567.237 1223.56 574.1C1213.61 580.413 1200.06 583.824 1188.73 583.321L1181.25 580.213Z" fill="white" stroke="#754551" stroke-width="1.19242" stroke-linecap="round" stroke-linejoin="round"/>
<path d="M1099.32 582.201L1096.44 593.964L1135.15 600.195L1138.02 588.431L1099.32 582.201Z" fill="#CBABB3" stroke="#754551" stroke-width="1.19242" stroke-linecap="round" stroke-linejoin="round"/>
<path d="M1042.7 593.745C1035.47 593.7 1028.29 594.731 1021.52 596.787C1021.43 596.786 1021.33 596.776 1021.24 596.776C1017.1 596.776 1013.14 598.863 1009.48 602.676C1006.2 605.166 1004.04 608.047 1003.34 611.148C993.808 627.868 987.469 657.543 987.469 691.37C987.469 743.611 1002.59 785.961 1021.24 785.961C1022.99 785.961 1036.89 786.605 1042.7 786.605C1064.58 786.605 1082.32 777.83 1082.32 767.01V613.343C1082.32 602.52 1064.58 593.745 1042.7 593.745Z" fill="white" stroke="#754551" stroke-width="1.19242" stroke-linecap="round" stroke-linejoin="round"/>
<path d="M1100.04 691.37C1100.04 743.611 1084.92 785.961 1066.27 785.961C1047.62 785.961 1032.5 743.611 1032.5 691.37C1032.5 639.127 1047.62 596.776 1066.27 596.776C1084.92 596.776 1100.04 639.127 1100.04 691.37Z" fill="#CBABB3" stroke="#754551" stroke-width="1.19242" stroke-miterlimit="10"/>
<path d="M1251.03 690.48C1251.03 684.951 1253.74 679.648 1258.55 675.739C1263.37 671.83 1269.9 669.634 1276.71 669.634H1398.33C1405.14 669.634 1411.68 671.83 1416.49 675.739C1421.31 679.648 1424.01 684.951 1424.01 690.48C1424.01 696.009 1421.31 701.311 1416.49 705.221C1411.68 709.13 1405.14 711.326 1398.33 711.326H1276.71C1269.9 711.326 1263.37 709.13 1258.55 705.221C1253.74 701.311 1251.03 696.009 1251.03 690.48V690.48Z" fill="white" stroke="#754551" stroke-width="1.19242" stroke-linecap="round" stroke-linejoin="round"/>
<path d="M1408.49 674.519C1408.08 679.051 1405.58 683.288 1401.48 686.382C1397.38 689.475 1391.99 691.196 1386.39 691.197H1281.32C1276.88 691.203 1272.55 690.122 1268.88 688.096C1268.83 688.537 1268.79 688.977 1268.79 689.427C1268.79 694.204 1271.13 698.785 1275.29 702.163C1279.45 705.54 1285.09 707.438 1290.98 707.437H1396.05C1400.79 707.438 1405.42 706.202 1409.23 703.912C1413.05 701.621 1415.86 698.397 1417.26 694.713C1418.65 691.028 1418.55 687.079 1416.97 683.444C1415.4 679.809 1412.42 676.681 1408.49 674.519V674.519Z" fill="#CBABB3"/>
<path d="M1196.97 682.8C1196.97 677.685 1198.21 672.619 1200.63 667.893C1203.04 663.167 1206.57 658.873 1211.03 655.256C1215.48 651.638 1220.77 648.769 1226.59 646.812C1232.41 644.854 1238.65 643.847 1244.95 643.847V643.847C1251.25 643.847 1257.49 644.854 1263.31 646.811C1269.13 648.769 1274.42 651.638 1278.88 655.255C1283.33 658.873 1286.86 663.167 1289.28 667.893C1291.69 672.619 1292.93 677.685 1292.92 682.8V698.158C1292.93 703.273 1291.69 708.339 1289.28 713.065C1286.87 717.791 1283.33 722.086 1278.88 725.703C1274.42 729.321 1269.13 732.19 1263.31 734.147C1257.49 736.105 1251.25 737.112 1244.95 737.111V737.111C1238.65 737.112 1232.41 736.104 1226.59 734.147C1220.77 732.19 1215.48 729.32 1211.02 725.703C1206.57 722.086 1203.04 717.791 1200.62 713.065C1198.21 708.339 1196.97 703.274 1196.97 698.158V682.8Z" fill="white" stroke="#754551" stroke-width="1.19242" stroke-linecap="round" stroke-linejoin="round"/>
<path d="M1264.91 713.126C1259.22 713.126 1253.59 712.217 1248.34 710.45C1243.08 708.683 1238.31 706.093 1234.29 702.828C1230.27 699.563 1227.08 695.686 1224.9 691.42C1222.72 687.154 1221.6 682.581 1221.61 677.964V664.1C1221.6 659.418 1222.75 654.783 1224.98 650.467C1218.37 653.545 1212.88 657.986 1209.07 663.339C1205.25 668.692 1203.24 674.769 1203.24 680.954V694.819C1203.24 702.937 1206.7 710.805 1213.04 717.088C1219.37 723.37 1228.19 727.68 1237.99 729.286C1247.79 730.891 1257.97 729.694 1266.81 725.897C1275.65 722.1 1282.6 715.936 1286.48 708.453C1279.92 711.521 1272.48 713.133 1264.91 713.126V713.126Z" fill="#CBABB3"/>
<path d="M1190.22 616.967H1094.27C1086.63 616.963 1079.08 618.278 1072.12 620.824C1053.95 652.617 1045.56 723.599 1072.12 760.135C1079.08 762.68 1086.63 763.994 1094.27 763.99H1190.22C1197.32 763.99 1204.35 762.856 1210.91 760.65C1217.46 758.445 1223.42 755.213 1228.44 751.138C1233.46 747.063 1237.44 742.225 1240.16 736.9C1242.88 731.575 1244.28 725.868 1244.28 720.105V660.854C1244.28 655.09 1242.88 649.383 1240.16 644.059C1237.44 638.734 1233.46 633.896 1228.44 629.821C1223.42 625.745 1217.46 622.513 1210.91 620.307C1204.35 618.102 1197.32 616.967 1190.22 616.967V616.967Z" fill="white" stroke="#754551" stroke-width="1.19242" stroke-linecap="round" stroke-linejoin="round"/>
<path d="M1224.44 736.443H1138.22C1131.35 736.447 1124.57 735.267 1118.31 732.98C1098.5 705.717 1100.34 657.131 1110.88 625.066H1097.5C1090.63 625.062 1083.85 626.244 1077.59 628.532C1061.26 657.103 1053.73 720.891 1077.59 753.725C1083.85 756.011 1090.63 757.192 1097.5 757.188H1183.72C1192.51 757.19 1201.13 755.258 1208.67 751.598C1216.2 747.937 1222.38 742.685 1226.53 736.401C1225.84 736.425 1225.14 736.443 1224.44 736.443Z" fill="#CBABB3"/>
<path d="M1169.58 589.284C1171.7 579.058 1172.53 556.205 1168.44 544.994C1157.22 514.241 1140.62 533.255 1140.62 544.614C1140.62 544.614 1142.46 566.216 1141.23 590.164C1150.69 590.78 1160.21 590.485 1169.58 589.284V589.284Z" fill="#CBABB3" stroke="#754551" stroke-width="1.19242" stroke-linecap="round" stroke-linejoin="round"/>
<path d="M1141.23 590.164C1140.23 609.528 1137.15 632.533 1123.21 644.839L1133.79 647.27C1133.79 647.27 1162.86 621.728 1169.58 589.284C1160.2 590.484 1150.69 590.78 1141.23 590.164V590.164Z" fill="white" stroke="#754551" stroke-width="1.19242" stroke-linecap="round" stroke-linejoin="round"/>
<path d="M1174.51 587.957H1134.59V601.57H1174.51V587.957Z" fill="#CBABB3" stroke="#754551" stroke-width="1.19242" stroke-linecap="round" stroke-linejoin="round"/>
<path d="M1135.9 644.499L1124.42 640.879C1123.82 640.957 1123.24 641.099 1122.68 641.299C1121.83 641.617 1122.14 643.883 1122.14 643.883C1122.14 643.883 1115.22 647.84 1111.96 652.095C1108.69 656.351 1101.96 659.366 1104.62 660.318C1107.29 661.273 1109.4 657.38 1110.5 658.289C1111.05 658.744 1109.46 662.418 1106.93 665.681C1104.4 668.942 1100.94 671.787 1102.98 672.13C1107.06 672.817 1114.79 662.241 1114.79 662.241C1114.79 662.241 1113.24 665.962 1111.31 669.751C1109.24 673.818 1106.85 677.999 1109.24 678.76C1111.3 679.418 1113.15 675.662 1115.59 672.116C1117.22 669.793 1119.01 667.548 1120.96 665.392C1120.96 665.392 1115.77 678.039 1118.07 677.314C1120.37 676.59 1124.68 665.248 1125.65 665.573C1126.61 665.897 1123.94 673.952 1125.63 673.78C1127.31 673.608 1132.49 659.968 1132.49 659.968C1132.49 659.968 1136.9 652.421 1135.05 647.625C1135.05 647.625 1137.87 645.807 1135.9 644.499Z" fill="#754551"/>
<path d="M1262.4 568.553C1262.82 569.091 1263.11 569.691 1263.25 570.319C1263.39 570.948 1263.38 571.593 1263.21 572.216C1263.04 572.84 1262.72 573.43 1262.27 573.954C1261.82 574.478 1261.25 574.925 1260.59 575.269L1246.97 582.347C1246.31 582.691 1245.57 582.926 1244.79 583.038C1244.02 583.151 1243.23 583.138 1242.46 583.001C1241.69 582.865 1240.96 582.606 1240.32 582.241C1239.67 581.876 1239.12 581.411 1238.7 580.874L1220.94 558.354C1220.52 557.816 1220.23 557.216 1220.09 556.588C1219.95 555.959 1219.97 555.315 1220.13 554.691C1220.3 554.067 1220.62 553.477 1221.07 552.953C1221.52 552.429 1222.09 551.983 1222.75 551.638L1236.37 544.56C1237.03 544.216 1237.77 543.981 1238.55 543.869C1239.32 543.757 1240.11 543.769 1240.88 543.906C1241.65 544.043 1242.38 544.301 1243.02 544.666C1243.67 545.031 1244.22 545.496 1244.64 546.034L1262.4 568.553Z" fill="#CBABB3" stroke="#754551" stroke-width="1.19242" stroke-linecap="round" stroke-linejoin="round"/>
<path d="M1227.79 565.908C1227.79 565.908 1244.95 565.357 1252.21 554.947Z" fill="#CBABB3"/>
<path d="M1227.79 565.908C1227.79 565.908 1244.95 565.357 1252.21 554.947" stroke="#754551" stroke-width="1.19242" stroke-linecap="round" stroke-linejoin="round"/>
<path d="M1220.58 481.526C1220.58 483.545 1220.09 485.545 1219.14 487.411C1218.19 489.276 1216.79 490.971 1215.04 492.399C1213.28 493.827 1211.19 494.96 1208.89 495.732C1206.59 496.505 1204.13 496.903 1201.64 496.903H1138.51C1133.49 496.903 1128.67 495.283 1125.12 492.399C1121.57 489.515 1119.57 485.604 1119.57 481.526V481.526C1119.57 477.448 1121.57 473.537 1125.12 470.653C1128.67 467.77 1133.49 466.15 1138.51 466.15H1201.64C1204.13 466.15 1206.59 466.547 1208.89 467.32C1211.19 468.093 1213.28 469.225 1215.04 470.653C1216.79 472.081 1218.19 473.776 1219.14 475.642C1220.09 477.507 1220.58 479.507 1220.58 481.526V481.526Z" fill="#754551"/>
<path d="M1142.02 481.526H1119.57V496.84H1142.02V481.526Z" fill="#754551"/>
<path d="M505.681 454.284H413.857C398.643 454.284 386.31 465.695 386.31 479.77C386.31 493.845 398.643 505.256 413.857 505.256H505.681C506.5 505.256 507.311 505.216 508.113 505.151H533.227V479.77C533.227 465.695 520.894 454.284 505.681 454.284Z" fill="#E40037"/>
<path d="M1154.65 481.02C1154.65 481.47 1154.48 481.911 1154.17 482.285C1153.86 482.66 1153.43 482.952 1152.91 483.124C1152.4 483.297 1151.84 483.342 1151.29 483.254C1150.75 483.166 1150.25 482.949 1149.86 482.63C1149.46 482.312 1149.2 481.906 1149.09 481.464C1148.98 481.022 1149.04 480.564 1149.25 480.148C1149.46 479.731 1149.82 479.376 1150.28 479.125C1150.74 478.875 1151.29 478.741 1151.84 478.741C1152.21 478.741 1152.57 478.8 1152.91 478.915C1153.25 479.029 1153.56 479.197 1153.82 479.409C1154.08 479.62 1154.29 479.871 1154.43 480.148C1154.57 480.424 1154.65 480.72 1154.65 481.02V481.02Z" fill="white"/>
<path d="M1172.88 481.02C1172.88 481.47 1172.72 481.911 1172.41 482.285C1172.1 482.66 1171.66 482.952 1171.15 483.124C1170.64 483.297 1170.07 483.342 1169.53 483.254C1168.99 483.166 1168.49 482.949 1168.09 482.63C1167.7 482.312 1167.43 481.906 1167.33 481.464C1167.22 481.022 1167.27 480.564 1167.49 480.148C1167.7 479.731 1168.06 479.376 1168.52 479.125C1168.98 478.875 1169.52 478.741 1170.08 478.741C1170.45 478.741 1170.81 478.8 1171.15 478.915C1171.49 479.029 1171.8 479.197 1172.06 479.409C1172.32 479.62 1172.53 479.871 1172.67 480.148C1172.81 480.424 1172.88 480.72 1172.88 481.02Z" fill="white"/>
<path d="M1191.12 481.02C1191.12 481.47 1190.96 481.911 1190.65 482.285C1190.34 482.66 1189.9 482.952 1189.39 483.124C1188.88 483.296 1188.31 483.341 1187.77 483.253C1187.22 483.165 1186.72 482.948 1186.33 482.63C1185.94 482.311 1185.67 481.905 1185.56 481.463C1185.46 481.021 1185.51 480.563 1185.72 480.147C1185.94 479.731 1186.3 479.375 1186.76 479.125C1187.22 478.875 1187.76 478.741 1188.32 478.741C1188.69 478.741 1189.05 478.8 1189.39 478.915C1189.73 479.029 1190.04 479.197 1190.3 479.409C1190.56 479.62 1190.77 479.871 1190.91 480.148C1191.05 480.424 1191.12 480.72 1191.12 481.02V481.02Z" fill="white"/>
<path d="M434.733 484.502H431.458L430.094 491.273H426.047L427.41 484.502H422.894V481.48H428.02L428.915 477.119H424.419V474.098H429.525L430.929 467.227H434.956L433.573 474.098H436.848L438.251 467.227H442.299L440.896 474.098H445.595V477.119H440.285L439.39 481.48H444.049V484.502H438.78L437.417 491.273H433.369L434.733 484.502ZM432.067 481.48H435.342L436.237 477.119H432.962L432.067 481.48Z" fill="white"/>
<path d="M462.791 484.502H459.516L458.153 491.273H454.106L455.468 484.502H450.953V481.48H456.079L456.973 477.119H452.478V474.098H457.584L458.987 467.227H463.015L461.632 474.098H464.907L466.31 467.227H470.358L468.955 474.098H473.653V477.119H468.344L467.449 481.48H472.108V484.502H466.839L465.476 491.273H461.428L462.791 484.502ZM460.126 481.48H463.401L464.296 477.119H461.021L460.126 481.48Z" fill="white"/>
<path d="M490.849 484.502H487.575L486.212 491.273H482.164L483.527 484.502H479.011V481.48H484.137L485.032 477.119H480.536V474.098H485.642L487.046 467.227H491.073L489.69 474.098H492.965L494.369 467.227H498.416L497.013 474.098H501.712V477.119H496.402L495.508 481.48H500.166V484.502H494.897L493.534 491.273H489.486L490.849 484.502ZM488.184 481.48H491.46L492.355 477.119H489.08L488.184 481.48Z" fill="white"/>
<path d="M1466.85 705.318C1439.73 705.318 1421.43 704.325 1419 704.186L1421.54 677.061C1423.38 677.168 1594.72 686.375 1686.14 645.695C1674.91 639.257 1664.49 631.999 1655.01 624.02C1623.09 597.036 1609.57 567.887 1618.84 546.047C1626.95 526.949 1644.39 515.975 1666.69 515.94H1666.79C1701.18 515.94 1740.95 543.357 1755.48 577.108C1765.57 600.575 1762 622.895 1745.92 641.044C1771.23 649.116 1799.87 652.573 1829.05 646.95C1895.19 634.21 1947.22 577.848 1979.53 483.956L2013.15 491.017C1994.32 545.752 1968.72 589.201 1937.08 620.16C1908.37 648.245 1874.83 666.143 1837.38 673.357C1804.42 679.707 1768.76 677.404 1734.25 666.692C1729.2 665.124 1724.2 663.381 1719.23 661.463C1650.3 699.473 1532.63 705.318 1466.85 705.318ZM1666.79 543.137H1666.76C1663.76 543.141 1656.74 543.153 1651.88 554.611C1647.73 564.388 1654.99 583.934 1680.57 605.559C1690.8 614.125 1702.29 621.708 1714.81 628.147C1729.6 613.733 1727.6 597.662 1722.48 585.778C1712.14 561.748 1684.07 543.137 1666.79 543.137V543.137Z" fill="#E40037"/>
<path d="M-448.337 359.671L-454.869 337.82C-454.589 337.77 -424.28 332.395 -391.36 316.394C-348.265 295.446 -321.075 266.983 -310.543 231.793C-299.625 195.311 -274.674 164.252 -238.388 141.976C-204.747 121.324 -162.722 109.45 -120.053 108.543C-78.3515 107.656 -38.5821 116.975 -5.05451 135.491C31.5148 155.686 59.2086 186.435 75.0324 224.414C100.572 285.713 150.592 327.231 223.7 347.808C279.108 363.405 327.83 360.601 328.317 360.572L331.11 382.86C328.913 383 276.638 386.13 215.54 369.148C179.432 359.111 147.712 344.106 121.261 324.549C88.2611 300.15 63.5741 268.683 47.8836 231.025C21.0736 166.679 -41.2273 129.244 -118.803 130.897C-184.974 132.303 -261.321 165.73 -282.721 237.236C-294.908 277.963 -327.463 312.067 -376.864 335.864C-413.752 353.634 -446.942 359.432 -448.337 359.671Z" fill="#E40037"/>
</g>
<defs>
<clipPath id="clip0_17_196">
<rect width="1920" height="1080" fill="white"/>
</clipPath>
</defs>
</svg>
