<svg width="140" height="140" viewBox="0 0 140 140" fill="none" xmlns="http://www.w3.org/2000/svg">
<path d="M102.493 89.3582C101.954 88.5106 101.25 87.7776 100.421 87.2021C99.5924 86.6266 98.6559 86.2201 97.6665 86.0064C93.8808 85.1362 90.5976 82.8203 88.5342 79.5649C86.4708 76.3093 85.7951 72.3789 86.6547 68.6325C86.9851 67.1845 86.8754 65.6723 86.3391 64.2857C85.8029 62.8992 84.8641 61.7001 83.6407 60.8392C82.4172 59.9783 80.9637 59.494 79.4625 59.4468C77.9615 59.3998 76.4798 59.7921 75.2036 60.5746C73.9273 61.3572 72.9136 62.4949 72.2894 63.845C71.6653 65.1952 71.4587 66.6975 71.6957 68.1633C71.9325 69.6291 72.6024 70.9931 73.6211 72.0838C74.6396 73.1746 75.9617 73.9436 77.421 74.2941C79.309 74.715 81.0943 75.5001 82.6747 76.6043C84.2551 77.7084 85.5994 79.1101 86.6307 80.7287C87.6619 82.3475 88.3598 84.1515 88.6843 86.0372C89.0089 87.923 88.9537 89.8536 88.5218 91.7183C88.2661 92.9204 88.3117 94.166 88.6546 95.3466C88.9976 96.5272 89.6276 97.607 90.4895 98.4919C91.3515 99.3768 92.4192 100.04 93.5999 100.423C94.7805 100.807 96.0381 100.899 97.2631 100.692C98.4882 100.485 99.6434 99.9855 100.628 99.2362C101.613 98.4869 102.397 97.5109 102.913 96.3933C103.429 95.2757 103.66 94.0504 103.587 92.8243C103.514 91.598 103.138 90.4081 102.493 89.3582Z" fill="white"/>
<path d="M102.493 89.3582C101.954 88.5106 101.25 87.7776 100.421 87.2021C99.5924 86.6266 98.6559 86.2201 97.6665 86.0064C93.8808 85.1362 90.5976 82.8203 88.5342 79.5649C86.4708 76.3093 85.7951 72.3789 86.6547 68.6325C86.9851 67.1845 86.8754 65.6723 86.3391 64.2857C85.8029 62.8992 84.8641 61.7001 83.6407 60.8392C82.4172 59.9783 80.9637 59.494 79.4625 59.4468C77.9615 59.3998 76.4798 59.7921 75.2036 60.5746C73.9273 61.3572 72.9136 62.4949 72.2894 63.845C71.6653 65.1952 71.4587 66.6975 71.6957 68.1633C71.9325 69.6291 72.6024 70.9931 73.6211 72.0838C74.6396 73.1746 75.9617 73.9436 77.421 74.2941C79.309 74.715 81.0943 75.5001 82.6747 76.6043C84.2551 77.7084 85.5994 79.1101 86.6307 80.7287C87.6619 82.3475 88.3598 84.1515 88.6843 86.0372C89.0089 87.923 88.9537 89.8536 88.5218 91.7183C88.2661 92.9204 88.3117 94.166 88.6546 95.3466C88.9976 96.5272 89.6276 97.607 90.4895 98.4919C91.3515 99.3768 92.4192 100.04 93.5999 100.423C94.7805 100.807 96.0381 100.899 97.2631 100.692C98.4882 100.485 99.6434 99.9855 100.628 99.2362C101.613 98.4869 102.397 97.5109 102.913 96.3933C103.429 95.2757 103.66 94.0504 103.587 92.8243C103.514 91.598 103.138 90.4081 102.493 89.3582Z" fill="#1FABE3"/>
<path d="M55.6386 80.9976C56.9717 81.7166 58.4917 82.0256 60.0037 81.8848C61.5158 81.7441 62.9507 81.16 64.1245 80.2076C65.2984 79.2551 66.1575 77.9778 66.5917 76.5394C67.0259 75.101 67.0154 73.5672 66.5614 72.1348C65.9861 70.3083 65.7811 68.3875 65.9584 66.4826C66.1356 64.5776 66.6913 62.7259 67.5941 61.0338C68.4967 59.3416 69.7284 57.8421 71.2186 56.6213C72.7087 55.4005 74.428 54.4825 76.2778 53.9198C77.7125 53.4756 78.9821 52.6219 79.927 51.4662C80.8719 50.3105 81.4499 48.9044 81.5881 47.4248C81.7264 45.9451 81.4188 44.4581 80.704 43.1509C79.9893 41.8437 78.8992 40.7746 77.5712 40.0783C76.2431 39.382 74.7363 39.0894 73.2405 39.2375C71.7446 39.3856 70.3264 39.9676 69.1644 40.9105C68.0024 41.8533 67.1485 43.1148 66.7102 44.5361C66.2719 45.9575 66.2688 47.4752 66.7011 48.8983C67.8362 52.5723 67.4523 56.5412 65.6338 59.9361C63.8151 63.331 60.7099 65.8756 56.9976 67.0129C55.5321 67.433 54.2279 68.2781 53.2538 69.4391C52.2798 70.6 51.6807 72.0232 51.5343 73.5244C51.388 75.0256 51.7009 76.5357 52.4326 77.859C53.1644 79.1825 54.2812 80.2583 55.6386 80.9473V80.9976Z" fill="white"/>
<path d="M55.6386 80.9976C56.9717 81.7166 58.4917 82.0256 60.0037 81.8848C61.5158 81.7441 62.9507 81.16 64.1245 80.2076C65.2984 79.2551 66.1575 77.9778 66.5917 76.5394C67.0259 75.101 67.0154 73.5672 66.5614 72.1348C65.9861 70.3083 65.7811 68.3875 65.9584 66.4826C66.1356 64.5776 66.6913 62.7259 67.5941 61.0338C68.4967 59.3416 69.7284 57.8421 71.2186 56.6213C72.7087 55.4005 74.428 54.4825 76.2778 53.9198C77.7125 53.4756 78.9821 52.6219 79.927 51.4662C80.8719 50.3105 81.4499 48.9044 81.5881 47.4248C81.7264 45.9451 81.4188 44.4581 80.704 43.1509C79.9893 41.8437 78.8992 40.7746 77.5712 40.0783C76.2431 39.382 74.7363 39.0894 73.2405 39.2375C71.7446 39.3856 70.3264 39.9676 69.1644 40.9105C68.0024 41.8533 67.1485 43.1148 66.7102 44.5361C66.2719 45.9575 66.2688 47.4752 66.7011 48.8983C67.8362 52.5723 67.4523 56.5412 65.6338 59.9361C63.8151 63.331 60.7099 65.8756 56.9976 67.0129C55.5321 67.433 54.2279 68.2781 53.2538 69.4391C52.2798 70.6 51.6807 72.0232 51.5343 73.5244C51.388 75.0256 51.7009 76.5357 52.4326 77.859C53.1644 79.1825 54.2812 80.2583 55.6386 80.9473V80.9976Z" fill="#1FABE3"/>
<path d="M75.249 79.7671C74.2358 79.8023 73.2399 80.0369 72.3195 80.4573C71.3992 80.8776 70.573 81.4751 69.8892 82.2151C67.2364 85.0195 63.568 86.6717 59.6862 86.8106C55.8043 86.9494 52.0247 85.5634 49.1738 82.9557C48.4372 82.2726 47.5706 81.741 46.6242 81.3919C45.678 81.0427 44.6709 80.8831 43.6616 80.9221C42.4192 80.98 41.21 81.3376 40.1397 81.9637C39.0692 82.5897 38.1702 83.4652 37.5209 84.5136C36.8716 85.5621 36.4918 86.7517 36.4147 87.9786C36.3376 89.2056 36.5654 90.4325 37.0784 91.5524C37.5914 92.6722 38.3738 93.651 39.3576 94.4032C40.3413 95.1555 41.4963 95.6582 42.7219 95.8676C43.9475 96.0771 45.2063 95.987 46.3885 95.605C47.5707 95.2231 48.6403 94.561 49.504 93.6764C50.8178 92.2704 52.3993 91.1345 54.158 90.3336C55.9167 89.5328 57.8179 89.0827 59.7528 89.0092C61.6878 88.9358 63.6184 89.2403 65.4341 89.9054C67.2497 90.5707 68.9147 91.5833 70.3338 92.8855C71.2576 93.7106 72.3719 94.2993 73.5792 94.6002C74.7865 94.9011 76.05 94.9051 77.2592 94.6118C78.4684 94.3185 79.5864 93.7368 80.5155 92.9176C81.4447 92.0984 82.1566 91.0666 82.589 89.9126C83.0214 88.7585 83.1611 87.5174 82.996 86.2976C82.8308 85.0779 82.3658 83.9168 81.6415 82.9157C80.9173 81.9147 79.956 81.1043 78.8416 80.5554C77.7272 80.0066 76.4937 79.7358 75.249 79.7671Z" fill="white"/>
<path d="M75.249 79.7671C74.2358 79.8023 73.2399 80.0369 72.3195 80.4573C71.3992 80.8776 70.573 81.4751 69.8892 82.2151C67.2364 85.0195 63.568 86.6717 59.6862 86.8106C55.8043 86.9494 52.0247 85.5634 49.1738 82.9557C48.4372 82.2726 47.5706 81.741 46.6242 81.3919C45.678 81.0427 44.6709 80.8831 43.6616 80.9221C42.4192 80.98 41.21 81.3376 40.1397 81.9637C39.0692 82.5897 38.1702 83.4652 37.5209 84.5136C36.8716 85.5621 36.4918 86.7517 36.4147 87.9786C36.3376 89.2056 36.5654 90.4325 37.0784 91.5524C37.5914 92.6722 38.3738 93.651 39.3576 94.4032C40.3413 95.1555 41.4963 95.6582 42.7219 95.8676C43.9475 96.0771 45.2063 95.987 46.3885 95.605C47.5707 95.2231 48.6403 94.561 49.504 93.6764C50.8178 92.2704 52.3993 91.1345 54.158 90.3336C55.9167 89.5328 57.8179 89.0827 59.7528 89.0092C61.6878 88.9358 63.6184 89.2403 65.4341 89.9054C67.2497 90.5707 68.9147 91.5833 70.3338 92.8855C71.2576 93.7106 72.3719 94.2993 73.5792 94.6002C74.7865 94.9011 76.05 94.9051 77.2592 94.6118C78.4684 94.3185 79.5864 93.7368 80.5155 92.9176C81.4447 92.0984 82.1566 91.0666 82.589 89.9126C83.0214 88.7585 83.1611 87.5174 82.996 86.2976C82.8308 85.0779 82.3658 83.9168 81.6415 82.9157C80.9173 81.9147 79.956 81.1043 78.8416 80.5554C77.7272 80.0066 76.4937 79.7358 75.249 79.7671Z" fill="#1FABE3"/>
</svg>
